<svg width="197" height="324" viewBox="0 0 197 324" fill="none" xmlns="http://www.w3.org/2000/svg">
<path fill-rule="evenodd" clip-rule="evenodd" d="M0.292487 1.22506C-0.198312 3.05782 -0.133966 3.25006 0.969116 3.25006C1.96961 3.25006 2.88426 1.3633 2.32435 0.456097C1.7855 -0.415463 0.613207 0.028423 0.292487 1.22506ZM6.79606 3.3235C6.40785 4.80742 6.73282 5.20811 8.72247 5.69951C9.95406 6.00353 10.2856 5.8507 10.6905 4.79284C11.2818 3.25006 10.9482 2.83048 8.78627 2.39794C7.36409 2.11336 7.07737 2.24674 6.79606 3.3235ZM14.8583 5.72433C14.2293 7.36323 14.5435 7.93295 16.3884 8.49941C18.1519 9.04049 18.2734 8.99188 18.7766 7.54792C19.2663 6.14446 19.1788 5.98192 17.6481 5.4484C15.4738 4.69024 15.2465 4.71291 14.8583 5.72433ZM22.703 8.97405C21.8898 10.7593 21.8234 10.6383 24.0155 11.3619C26.2022 12.0839 26.3303 12.0294 26.5322 10.2917C26.645 9.32397 26.2876 8.86662 24.9977 8.32878C23.4168 7.6689 23.2802 7.70721 22.703 8.97405ZM30.5287 12.0251C30.0541 13.7968 30.0639 13.82 31.5639 14.5031C33.4736 15.3736 33.7111 15.3131 34.4087 13.7822C34.9805 12.5278 34.8882 12.3777 33.0799 11.6222C30.681 10.62 30.9153 10.5827 30.5287 12.0251ZM38.2768 15.4281C37.6197 17.1561 37.8491 17.5714 39.8425 18.2664C41.2366 18.7524 41.4651 18.666 42.0234 17.4402C42.3668 16.6869 42.578 16.0113 42.4921 15.939C42.4068 15.8666 41.5445 15.4044 40.5753 14.9113C38.8281 14.0225 38.8097 14.0263 38.2768 15.4281ZM45.8672 18.8712C45.0125 20.469 45.1577 20.799 47.1285 21.7391C48.9227 22.5945 48.96 22.5869 49.5787 21.2294C49.9237 20.4707 50.137 19.7913 50.0512 19.719C49.9659 19.6466 49.116 19.1903 48.1619 18.7054C46.5146 17.8679 46.4001 17.876 45.8672 18.8712ZM53.4327 22.6393C53.1212 23.222 52.8658 23.952 52.8658 24.2609C52.8658 24.8009 56.0519 26.733 56.3521 26.375C56.4331 26.2789 56.77 25.6779 57.1015 25.0401C57.7149 23.8602 57.5724 23.6815 54.6476 21.9611C54.2729 21.7408 53.7605 22.0269 53.4327 22.6393ZM60.5392 27.2444C60.002 28.4233 60.116 28.67 61.6376 29.6339C63.2142 30.6324 63.3837 30.6443 64.0224 29.8046C65.092 28.3973 64.8777 27.6467 63.1515 26.7541C61.1365 25.7119 61.2471 25.6909 60.5392 27.2444ZM67.9478 31.3981C67.3733 32.4711 67.4785 32.7551 68.8559 33.8551L70.4136 35.0987L71.3466 33.8897C72.5787 32.2923 72.5533 32.1687 70.8185 31.2993C70.0022 30.8894 69.168 30.4715 68.9655 30.3694C68.7625 30.2679 68.3047 30.7307 67.9478 31.3981ZM75.1331 35.6425C74.1785 37.1713 74.2719 37.4639 76.0461 38.5126C77.5887 39.4241 77.6509 39.4166 78.4932 38.2237C79.3144 37.0611 79.2825 36.9396 77.8549 35.7878C76.0229 34.3093 75.9673 34.306 75.1331 35.6425ZM81.9681 40.6105C81.4163 41.6424 81.5335 41.9503 82.8941 43.047L84.4518 44.303L85.4459 43.0961C86.4226 41.9098 86.415 41.8676 85.0106 40.6596C83.2331 39.1304 82.7645 39.1228 81.9681 40.6105ZM88.9089 45.5008C88.1568 46.6342 88.2087 46.787 89.7226 47.9048L91.3403 49.0977L92.3332 47.9092C93.3083 46.7411 93.3002 46.6985 91.8586 45.5078C90.0407 44.006 89.9018 44.0055 88.9089 45.5008ZM95.7472 50.2781C94.8066 51.3171 94.8212 51.3959 96.2077 52.7826C97.6067 54.1823 97.6639 54.1921 98.7395 53.2184C100.168 51.9262 100.136 51.7324 98.2789 50.3591C96.7228 49.2084 96.7153 49.2084 95.7472 50.2781ZM102.205 55.7008C101.211 56.7997 101.221 56.8375 102.808 58.1027C104.4 59.3723 104.434 59.3755 105.461 58.349C106.342 57.4666 106.391 57.1772 105.779 56.4401C104.365 54.7353 103.282 54.5112 102.205 55.7008ZM108.717 61.0646C107.761 62.1214 107.773 62.19 109.166 63.5826C110.565 64.9823 110.622 64.9921 111.698 64.0184C113.141 62.7127 113.092 62.393 111.25 61.0808L109.701 59.9776L108.717 61.0646ZM115.055 66.5975L113.872 67.8562L115.125 69.0329C116.65 70.466 117.227 70.5006 118.38 69.2273C119.213 68.306 119.174 68.1527 117.753 66.7913L116.237 65.3387L115.055 66.5975ZM121.159 72.3793C120.172 73.4701 120.18 73.5187 121.604 74.9421L123.054 76.3925L124.145 75.3017L125.236 74.2109L123.701 72.7394L122.164 71.2679L121.159 72.3793ZM127.098 78.3193C126.111 79.4101 126.12 79.4587 127.543 80.8821L128.994 82.3325L130.084 81.2417L131.175 80.1509L129.64 78.6794L128.104 77.2079L127.098 78.3193ZM132.87 84.4196L131.697 85.6687L133.222 87.1304C134.732 88.5776 134.758 88.5814 135.709 87.53C136.633 86.5089 136.625 86.4047 135.496 84.8192C134.85 83.912 134.259 83.1701 134.183 83.1701C134.107 83.1701 133.516 83.7322 132.87 84.4196ZM138.487 90.6836C137.572 91.6945 137.574 91.7982 138.528 93.1077C139.72 94.7444 140.41 94.8389 141.597 93.5273C142.43 92.606 142.391 92.4527 140.964 91.0859C139.461 89.6458 139.431 89.6404 138.487 90.6836ZM143.904 97.1437C142.999 98.1443 142.998 98.2723 143.88 99.619C144.9 101.176 146.102 101.238 147.02 99.781C147.495 99.0261 147.34 98.5714 146.235 97.4655C144.875 96.1058 144.848 96.1015 143.904 97.1437ZM149.076 103.707L147.829 104.726L149.042 106.367C150.13 107.838 150.367 107.933 151.34 107.288C152.856 106.281 152.883 105.788 151.518 104.134C150.334 102.7 150.313 102.697 149.076 103.707ZM153.975 110.53L152.767 111.373L153.877 112.932C155.137 114.701 155.397 114.775 156.78 113.764C157.743 113.059 157.743 112.987 156.767 111.334C155.62 109.394 155.608 109.39 153.975 110.53ZM158.806 117.546L157.6 118.54L158.856 120.098C159.952 121.459 160.26 121.576 161.292 121.024C162.764 120.236 162.759 119.986 161.239 118.086C160.031 116.576 159.994 116.568 158.806 117.546ZM163.687 124.363C162.216 125.031 162.176 125.639 163.472 127.605C164.459 129.104 164.469 129.105 165.728 128.085L166.993 127.061L165.948 125.436C165.045 124.035 164.735 123.888 163.687 124.363ZM167.736 131.813C166.567 132.494 166.552 133.062 167.657 134.749C168.394 135.874 168.693 135.98 169.681 135.466C170.319 135.135 170.92 134.798 171.016 134.717C171.308 134.472 169.492 131.229 169.072 131.246C168.857 131.255 168.256 131.51 167.736 131.813ZM171.533 139.364C170.67 139.867 170.666 140.032 171.475 141.73C172.261 143.377 172.471 143.499 173.618 142.977C175.071 142.315 175.129 142.064 174.264 140.165C173.59 138.687 172.994 138.512 171.533 139.364ZM175.2 147.064C174.284 147.734 174.278 147.883 175.103 149.48C175.905 151.03 176.103 151.127 177.327 150.569C178.853 149.874 178.913 149.635 178.043 147.725C177.34 146.182 176.632 146.017 175.2 147.064ZM178.821 154.461C177.695 154.914 177.667 155.05 178.363 156.704C179.242 158.796 179.724 159.033 181.082 158.04C181.991 157.375 182.025 157.112 181.4 155.602C180.64 153.767 180.595 153.747 178.821 154.461ZM182.278 162.152C181.16 162.529 180.855 162.898 181.125 163.552C181.327 164.04 181.614 164.865 181.764 165.385C182.056 166.401 183.334 166.608 184.554 165.836C185.199 165.427 185.199 165.091 184.554 163.499C183.854 161.775 183.689 161.677 182.278 162.152ZM184.785 170.112C183.711 170.545 183.662 170.753 184.211 172.541C184.744 174.28 184.964 174.458 186.194 174.149C188.051 173.683 188.046 173.695 187.321 171.496C186.639 169.431 186.569 169.392 184.785 170.112ZM187.444 178.051C186.052 178.319 186.011 178.504 186.828 180.847C187.321 182.261 187.632 182.503 188.583 182.21C189.219 182.015 189.829 181.776 189.938 181.678C190.285 181.37 189.438 177.666 189.039 177.744C188.83 177.784 188.112 177.922 187.444 178.051ZM189.821 186.216C188.537 186.363 188.336 186.585 188.599 187.566C188.772 188.212 188.917 189.165 188.921 189.685C188.929 190.694 190.313 190.934 191.561 190.143C192.117 189.791 192.185 189.214 191.831 187.856C191.417 186.265 191.168 186.062 189.821 186.216ZM190.375 194.815C190.244 195.038 190.257 196.01 190.404 196.975C190.62 198.397 190.918 198.73 191.977 198.73C193.486 198.73 194.048 197.68 193.566 195.759C193.322 194.785 192.864 194.41 191.92 194.41C191.201 194.41 190.505 194.593 190.375 194.815ZM192.543 202.888C191.811 203.078 191.608 203.569 191.733 204.85C191.875 206.314 192.134 206.583 193.535 206.72C195.143 206.878 195.168 206.843 194.963 204.695C194.758 202.55 194.524 202.375 192.543 202.888ZM192.708 213.274C192.708 215.364 192.788 215.47 194.36 215.47C195.94 215.47 196.006 215.38 195.845 213.445C195.7 211.687 195.482 211.397 194.193 211.249C192.789 211.087 192.708 211.197 192.708 213.274ZM194.034 219.617C193.122 219.798 192.968 220.161 193.148 221.703C193.341 223.351 193.549 223.57 194.927 223.57C196.056 223.57 196.486 223.309 196.48 222.625C196.469 221.217 195.87 219.24 195.48 219.324C195.292 219.364 194.641 219.496 194.034 219.617ZM193.048 229.566C192.629 231.659 192.959 232.21 194.63 232.21C195.522 232.21 195.95 231.905 195.955 231.265C195.959 230.745 196.109 229.773 196.288 229.105C196.573 228.043 196.41 227.89 194.999 227.89C193.624 227.89 193.333 228.14 193.048 229.566ZM192.708 237.566C192.708 238.136 192.573 238.955 192.407 239.387C192.2 239.927 192.579 240.263 193.622 240.463C194.455 240.624 195.177 240.716 195.225 240.668C195.272 240.62 195.482 239.669 195.69 238.555C196.061 236.568 196.036 236.53 194.388 236.53C193.092 236.53 192.708 236.767 192.708 237.566ZM191.628 246.25C191.628 247.141 191.621 248.053 191.612 248.275C191.602 248.498 192.201 248.756 192.943 248.849C194.006 248.983 194.364 248.726 194.637 247.635C195.133 245.66 194.571 244.63 192.995 244.63C191.836 244.63 191.628 244.877 191.628 246.25ZM190.348 253.553C189.634 255.413 189.988 256.919 191.214 257.24C192.679 257.622 193.01 257.292 193.433 255.025C193.676 253.728 193.565 253.27 193.009 253.27C192.595 253.27 191.904 253.135 191.472 252.969C191.032 252.8 190.539 253.056 190.348 253.553ZM188.35 262.283C187.558 264.364 187.747 265.008 189.262 265.388C190.974 265.818 190.907 265.88 191.357 263.467C191.694 261.661 191.613 261.493 190.286 261.239C189.131 261.019 188.753 261.222 188.35 262.283ZM185.799 270.921C185.088 273.24 185.016 273.061 186.838 273.518C188.08 273.83 188.329 273.657 188.868 272.111C189.523 270.233 189.316 269.789 187.537 269.254C186.6 268.972 186.313 269.248 185.799 270.921ZM182.959 278.722C182.336 280.229 182.369 280.496 183.267 281.152C184.727 282.22 185.061 282.091 185.893 280.135C186.547 278.598 186.534 278.296 185.791 277.705C184.449 276.638 183.714 276.902 182.959 278.722ZM179.594 286.469C178.74 288.259 178.747 288.373 179.729 288.899C181.307 289.743 181.641 289.595 182.579 287.628C183.431 285.84 183.422 285.794 182.113 285.198C181.379 284.864 180.714 284.59 180.634 284.59C180.555 284.59 180.087 285.435 179.594 286.469ZM175.855 293.944C175.051 295.63 175.061 295.777 176.017 296.374C177.531 297.32 177.847 297.185 178.799 295.188C179.651 293.4 179.642 293.354 178.334 292.758C177.6 292.424 176.934 292.15 176.855 292.15C176.775 292.15 176.325 292.957 175.855 293.944ZM171.56 301.3C170.686 302.837 170.697 302.908 171.934 303.719C173.149 304.516 173.264 304.476 174.411 302.866C175.573 301.233 175.579 301.155 174.608 300.444C173.141 299.371 172.566 299.532 171.56 301.3ZM167.068 308.145C166.18 309.501 166.188 309.606 167.249 310.668L168.357 311.776L169.446 310.468C170.714 308.946 170.818 308.273 169.923 307.378C168.92 306.375 168.08 306.601 167.068 308.145ZM162.253 314.655C161.497 315.692 161.369 316.294 161.772 316.932C162.646 318.321 163.863 318.229 164.866 316.699C165.747 315.354 165.747 315.224 164.86 314.244C163.666 312.925 163.495 312.952 162.253 314.655ZM157.595 320.522C156.953 321.295 157.03 321.543 158.176 322.408C159.347 323.291 159.549 323.309 159.965 322.567C160.285 321.994 160.102 321.4 159.383 320.681C158.414 319.712 158.277 319.699 157.595 320.522Z" fill="white"/>
</svg>
