<svg width="227" height="248" viewBox="0 0 227 248" fill="none" xmlns="http://www.w3.org/2000/svg">
<path fill-rule="evenodd" clip-rule="evenodd" d="M223.921 0.449828C223.413 1.27225 225.008 2.88685 225.966 2.51911C226.726 2.22751 226.76 2.00341 226.184 1.08163C225.476 -0.0518332 224.415 -0.348292 223.921 0.449828ZM218.217 4.28005C216.908 5.28499 216.901 5.32981 217.882 6.41413L218.885 7.52167L220.464 6.39685C221.97 5.32441 222 5.22397 221.119 4.25035C219.987 2.99971 219.881 3.00079 218.217 4.28005ZM212.252 8.91109C211.07 10.1698 211.04 10.3372 211.856 11.1537C212.673 11.9702 212.842 11.968 214.121 11.1299C215.764 10.0537 215.826 9.62929 214.517 8.44345C213.592 7.60699 213.45 7.63615 212.252 8.91109ZM206.316 13.9271C205.237 14.8009 205.187 15.032 205.846 16.0871C206.774 17.5743 206.938 17.5646 208.469 15.9349C209.509 14.8284 209.605 14.4601 209.037 13.7749C208.157 12.7148 207.787 12.7359 206.316 13.9271ZM200.471 19.608L199.288 20.8667L200.382 21.8565C201.447 22.8204 201.512 22.8134 202.819 21.5849C204.078 20.4017 204.107 20.2603 203.27 19.3358C202.124 18.0695 201.895 18.0916 200.471 19.608ZM195.326 25.1678C194.402 26.4363 194.389 26.6247 195.18 27.4153C195.971 28.2058 196.157 28.1713 197.403 27.0006C198.678 25.8028 198.707 25.6608 197.871 24.7358C196.726 23.4706 196.541 23.5019 195.326 25.1678ZM190.173 31.2439L189.057 32.8115L190.266 33.5945C191.383 34.317 191.569 34.2641 192.683 32.9028C193.9 31.4145 193.821 31.117 191.922 30.037C191.561 29.8312 190.809 30.3496 190.173 31.2439ZM185.527 37.6094C184.626 38.9853 184.628 39.0814 185.569 39.7694C186.921 40.7581 187.064 40.7095 188.135 38.8962C189.042 37.3599 189.038 37.2827 188.017 36.7362C186.591 35.9727 186.602 35.9689 185.527 37.6094ZM181.208 44.0894C180.306 45.4653 180.309 45.5614 181.249 46.2494C182.601 47.2381 182.744 47.1895 183.815 45.3762C184.722 43.8399 184.718 43.7627 183.697 43.2162C182.271 42.4527 182.282 42.4489 181.208 44.0894ZM177.47 50.3275C176.332 51.9523 176.411 52.7677 177.747 53.1916C178.507 53.433 179.109 53.2278 179.62 52.5534C180.663 51.1764 180.588 50.3437 179.359 49.6865C178.513 49.2334 178.149 49.3571 177.47 50.3275ZM173.669 57.7487C172.897 59.2402 172.913 59.3854 173.889 59.9087C175.352 60.6912 175.42 60.6625 176.347 58.8697C177.119 57.3783 177.104 57.233 176.127 56.7097C174.664 55.9273 174.596 55.9559 173.669 57.7487ZM170.277 64.8886C169.54 66.8391 169.491 66.696 171.065 67.1798C172.019 67.4725 172.417 67.2252 173.093 65.9173C173.882 64.3929 173.869 64.2557 172.887 63.7297C171.299 62.8803 170.981 63.0218 170.277 64.8886ZM167.437 71.8378C166.701 73.6155 167.081 74.5092 168.574 74.5092C169.218 74.5092 169.844 73.9611 170.166 73.1139C170.782 71.4917 170.564 70.9636 169.117 70.5856C168.344 70.3831 167.904 70.7114 167.437 71.8378ZM164.8 79.4567C164.114 81.425 164.128 81.4574 165.803 81.6523C166.766 81.7647 167.184 81.4369 167.59 80.2516C167.993 79.0776 167.942 78.5911 167.38 78.2352C166.065 77.402 165.407 77.7136 164.8 79.4567ZM162.576 86.6943C161.819 88.6853 161.898 88.9342 163.375 89.2167C164.465 89.4251 164.8 89.1799 165.271 87.8305C165.703 86.5885 165.677 86.0863 165.161 85.7585C163.94 84.9836 163.113 85.2833 162.576 86.6943ZM160.758 93.7235C160.135 95.3451 160.434 96.5245 161.539 96.8134C162.375 97.0321 162.78 96.7583 163.181 95.7031C163.474 94.9331 163.59 93.9805 163.438 93.5863C163.056 92.5895 161.155 92.6867 160.758 93.7235ZM159.193 100.766C158.982 100.977 158.81 101.809 158.81 102.616C158.81 103.675 159.142 104.17 160.001 104.395C161.477 104.781 161.444 104.817 161.628 102.561C161.752 101.038 161.579 100.671 160.678 100.542C160.071 100.455 159.403 100.556 159.193 100.766ZM145.852 108.799C145.852 109.982 146.085 110.149 147.741 110.149C149.397 110.149 149.631 109.982 149.631 108.799C149.631 107.617 149.397 107.449 147.741 107.449C146.085 107.449 145.852 107.617 145.852 108.799ZM153.411 108.799C153.411 109.982 153.645 110.149 155.3 110.149C156.549 110.149 157.19 110.402 157.19 110.896C157.19 111.774 159.394 112.481 160.058 111.817C160.309 111.566 160.435 110.665 160.337 109.814C160.143 108.118 158.461 107.36 157.668 108.611C157.311 109.175 157.205 109.126 157.198 108.394C157.192 107.676 156.737 107.449 155.3 107.449C153.645 107.449 153.411 107.617 153.411 108.799ZM161.32 108.655C160.909 110.228 161.557 110.815 163.464 110.596C164.463 110.482 165.078 110.06 165.203 109.404C165.597 107.326 161.857 106.604 161.32 108.655ZM137.761 108.902C137.776 110.69 138.529 111.263 140.381 110.892C141.768 110.615 142.094 110.307 141.965 109.401C141.838 108.508 141.362 108.223 139.777 108.092C138.119 107.954 137.754 108.101 137.761 108.902ZM169.069 109.821C169.069 111.139 169.958 111.769 171.813 111.769C173.11 111.769 173.261 109.344 171.994 108.857C170.139 108.145 169.069 108.498 169.069 109.821ZM130.816 109.547C130.415 109.801 130.181 110.466 130.295 111.024C130.452 111.792 130.934 112.019 132.277 111.956C134.444 111.853 134.55 111.757 134.159 110.26C133.834 109.021 132.197 108.671 130.816 109.547ZM176.628 111.499C176.628 112.242 176.81 112.852 177.033 112.857C177.255 112.861 177.982 113.01 178.647 113.188C179.583 113.439 179.965 113.224 180.334 112.236C180.857 110.843 180.147 110.259 177.843 110.187C176.897 110.158 176.628 110.448 176.628 111.499ZM123.257 111.167C122.856 111.421 122.622 112.086 122.736 112.644C122.893 113.412 123.375 113.639 124.718 113.576C126.885 113.473 126.991 113.377 126.6 111.88C126.275 110.641 124.638 110.291 123.257 111.167ZM116.56 112.937C115.048 113.489 114.751 114.201 115.525 115.421C116.155 116.414 119.555 115.666 119.155 114.622C118.99 114.192 118.855 113.496 118.855 113.075C118.855 112.2 118.616 112.186 116.56 112.937ZM184.187 112.805C184.187 113.078 184.061 113.63 183.906 114.032C183.512 115.061 186.923 116.357 187.525 115.408C188.227 114.303 188.026 113.459 186.922 112.868C185.628 112.176 184.187 112.142 184.187 112.805ZM108.731 115.668C107.325 116.346 107.263 116.616 108.213 117.916C108.812 118.735 109.116 118.776 110.373 118.202C111.913 117.501 112.038 117.244 111.508 115.864C111.133 114.885 110.454 114.837 108.731 115.668ZM191.335 116.292C190.825 117.412 190.919 117.651 192.083 118.182C193.915 119.017 194.32 118.953 194.976 117.728C195.457 116.827 195.301 116.541 193.941 115.838C191.919 114.792 192.027 114.773 191.335 116.292ZM156.51 117.272C156.171 119.506 156.384 119.869 158.032 119.869C159.178 119.869 159.35 119.623 159.35 117.979C159.35 116.94 159.127 116.089 158.854 116.089C158.582 116.089 158.004 115.953 157.57 115.787C157.004 115.569 156.706 115.987 156.51 117.272ZM101.982 118.356C100.449 118.896 100.171 119.598 100.983 120.88C101.333 121.432 101.838 121.492 102.966 121.116C104.759 120.518 105.078 119.867 104.149 118.695C103.616 118.021 103.143 117.947 101.982 118.356ZM198.18 119.953C197.648 120.947 197.745 121.262 198.836 122.102C200.482 123.367 200.757 123.351 201.51 121.945C202.041 120.951 201.945 120.636 200.854 119.797C199.208 118.531 198.932 118.547 198.18 119.953ZM94.693 121.608C93.3961 122.234 93.2023 122.918 93.9766 124.141C94.3788 124.776 94.734 124.788 96.1281 124.21C98.0066 123.432 98.0077 123.43 97.2388 121.994C96.6087 120.816 96.4003 120.785 94.693 121.608ZM155.57 125.539C155.57 127.279 155.699 127.429 157.19 127.429C158.682 127.429 158.81 127.279 158.81 125.539C158.81 123.799 158.682 123.649 157.19 123.649C155.699 123.649 155.57 123.799 155.57 125.539ZM204.329 124.667C203.797 125.518 203.906 125.886 204.993 126.907C206.07 127.919 206.434 128.01 207.118 127.442C208.275 126.483 208.147 125.473 206.744 124.49C205.224 123.425 205.098 123.434 204.329 124.667ZM87.9266 125.075C86.3602 125.896 86.074 126.828 87.0794 127.834C87.5464 128.301 88.0799 128.257 89.2391 127.658C90.9502 126.773 91.0485 126.479 90.0696 125.193C89.4713 124.406 89.2278 124.393 87.9266 125.075ZM80.9258 128.993C79.218 129.99 79.1818 130.11 80.179 131.474C80.9004 132.46 80.9582 132.459 82.5737 131.437C84.1643 130.429 84.1935 130.344 83.3194 129.257C82.4593 128.188 82.3285 128.173 80.9258 128.993ZM209.503 130.246C208.702 130.792 208.702 130.963 209.503 132.371C210.504 134.132 210.621 134.17 211.995 133.165C212.966 132.455 212.97 132.354 212.086 131.005C211.067 129.45 210.79 129.369 209.503 130.246ZM156.11 133.369C156.11 135.615 156.205 135.707 158.023 135.218C158.922 134.977 159.085 134.579 158.909 133.066C158.729 131.528 158.47 131.209 157.401 131.209C156.255 131.209 156.11 131.452 156.11 133.369ZM74.1114 133.297C73.0175 134.138 72.923 134.45 73.4591 135.452C73.9445 136.359 74.2938 136.504 75.0081 136.094C77.3277 134.764 77.4158 134.632 76.777 133.438C76.0335 132.048 75.7544 132.033 74.1114 133.297ZM67.6369 137.614C66.4988 138.489 66.4404 138.718 67.0916 139.761C67.9744 141.175 68.0322 141.175 69.6941 139.793C70.7157 138.942 70.8911 138.493 70.4651 137.818C69.6682 136.554 69.0726 136.511 67.6369 137.614ZM212.932 137.059C212.101 137.586 212.639 140.948 213.546 140.891C215.376 140.777 215.858 140.118 215.396 138.364C214.933 136.615 214.224 136.238 212.932 137.059ZM158.135 139.141C157.134 139.403 156.88 141.224 157.671 142.472C157.97 142.945 158.56 143.07 159.332 142.825C160.235 142.538 160.452 142.16 160.217 141.282C160.045 140.642 159.901 139.816 159.897 139.444C159.89 138.748 159.739 138.722 158.135 139.141ZM61.4952 142.138C60.0671 143.319 60.0493 143.399 60.9553 144.541L61.8921 145.723L63.4039 144.499C64.8807 143.304 64.8936 143.249 63.9439 142.096L62.972 140.916L61.4952 142.138ZM213.228 146.332C212.946 148.252 213.118 148.489 214.783 148.489C215.863 148.489 216.043 148.219 216.043 146.599C216.043 144.967 215.867 144.709 214.754 144.709C213.735 144.709 213.416 145.048 213.228 146.332ZM55.3416 147.078L53.7931 148.426L54.9011 149.55L56.0095 150.676L57.2535 149.351C58.3895 148.143 58.4279 147.927 57.6942 146.879L56.8902 145.731L55.3416 147.078ZM160.025 146.687C159.143 147.043 159.164 148.568 160.068 149.804C160.656 150.608 160.992 150.675 161.928 150.174C162.925 149.641 162.999 149.356 162.507 147.946C161.962 146.381 161.44 146.116 160.025 146.687ZM49.2895 152.448C48.1394 153.672 48.1347 153.732 49.1119 154.616C50.0579 155.473 50.2031 155.458 51.5783 154.376C52.9675 153.283 52.994 153.176 52.1177 152.208C50.9406 150.907 50.7192 150.926 49.2895 152.448ZM211.234 153.185C210.657 154.451 210.696 154.752 211.517 155.352C212.877 156.347 213.13 156.246 213.89 154.412C214.642 152.596 214.625 152.548 213.028 152.059C212.156 151.791 211.754 152.044 211.234 153.185ZM163.178 153.848C162.543 154.25 162.531 154.605 163.109 156C163.883 157.867 164.133 157.969 165.496 156.972C166.315 156.373 166.356 156.07 165.782 154.812C165.084 153.28 164.448 153.044 163.178 153.848ZM43.6181 157.577C42.5037 158.808 42.4906 159.503 43.5651 160.395C44.273 160.982 44.6294 160.869 45.8167 159.682C47.004 158.494 47.1169 158.138 46.53 157.43C45.6105 156.322 44.712 156.368 43.6181 157.577ZM207.224 159.602C206.438 160.682 206.368 161.121 206.886 161.745C207.845 162.901 208.785 162.705 209.813 161.134C210.678 159.815 210.674 159.699 209.74 158.992C208.439 158.005 208.376 158.02 207.224 159.602ZM167.566 160.279L166.332 161.212L167.877 162.692C169.344 164.097 169.464 164.124 170.28 163.216C171.069 162.336 171.044 162.142 169.968 160.803C168.836 159.393 168.76 159.376 167.566 160.279ZM38.3937 163.351C37.1913 164.631 37.1702 164.765 38.0341 165.629C38.898 166.494 39.0324 166.467 40.3185 165.181C41.6462 163.853 41.6565 163.787 40.6786 162.902C39.7267 162.041 39.6015 162.065 38.3937 163.351ZM201.993 164.971C200.811 166.23 200.782 166.397 201.598 167.214C202.414 168.03 202.583 168.028 203.862 167.19C205.505 166.114 205.568 165.689 204.258 164.503C203.333 163.667 203.191 163.696 201.993 164.971ZM173.05 165.845C172.062 166.937 172.072 166.978 173.627 168.218C175.091 169.386 175.261 169.412 175.902 168.57C176.883 167.278 176.77 166.707 175.324 165.657C174.113 164.777 174.009 164.785 173.05 165.845ZM33.0915 169.188C31.9458 170.408 31.9399 170.475 32.9047 171.348C34.2151 172.534 34.4397 172.494 35.4867 170.897C36.201 169.806 36.2432 169.387 35.7033 168.737C34.8053 167.655 34.4786 167.711 33.0915 169.188ZM195.93 168.684C194.435 169.221 194.071 170.283 194.922 171.625C195.302 172.224 195.678 172.198 197.073 171.476C198.931 170.516 199.049 170.222 198.073 168.985C197.56 168.334 197.089 168.268 195.93 168.684ZM179.655 169.864C179.103 171.304 179.266 171.582 181.028 172.196C181.963 172.522 182.785 172.789 182.855 172.789C182.924 172.789 183.101 172.164 183.247 171.4C183.457 170.298 183.24 169.908 182.195 169.51C180.392 168.825 180.035 168.874 179.655 169.864ZM188.641 170.528C187.188 170.669 186.887 170.924 186.887 172.013C186.887 173.188 187.118 173.329 189.046 173.329C191.216 173.329 191.55 172.907 190.763 171.169C190.52 170.632 189.805 170.416 188.641 170.528ZM28.1496 175.337C27.0611 176.722 27.0497 176.841 27.9449 177.496C29.2396 178.443 29.5729 178.378 30.5453 176.989C31.6311 175.439 31.6051 175.104 30.3444 174.43C29.4913 173.973 29.0934 174.138 28.1496 175.337ZM23.4646 181.765C22.5802 183.114 22.5845 183.215 23.5553 183.925C24.9445 184.941 25.0795 184.897 26.155 183.076C27.0621 181.54 27.0578 181.463 26.0368 180.916C24.5838 180.139 24.5148 180.161 23.4646 181.765ZM19.2282 188.269C18.3265 189.645 18.3287 189.741 19.2693 190.429C20.6213 191.418 20.7643 191.37 21.8356 189.556C22.7427 188.02 22.7383 187.943 21.7173 187.396C20.2914 186.633 20.3027 186.629 19.2282 188.269ZM15.4999 194.671C14.426 196.309 14.4266 196.889 15.5022 197.301C16.9368 197.852 17.2893 197.688 18.1187 196.084C18.8767 194.618 18.8519 194.51 17.6344 193.955C16.5318 193.453 16.2321 193.553 15.4999 194.671ZM11.6892 201.929C10.9176 203.42 10.9327 203.565 11.9094 204.089C13.486 204.932 13.816 204.796 14.4844 203.024C15.0146 201.62 14.9616 201.326 14.0983 200.864C12.6896 200.11 12.6114 200.145 11.6892 201.929ZM8.68816 209.019C8.11043 210.413 8.1224 210.769 8.75737 211.171C10.0267 211.974 10.6633 211.739 11.3615 210.206C11.9349 208.949 11.8944 208.645 11.0753 208.046C9.71195 207.049 9.46188 207.151 8.68816 209.019ZM5.99561 216.294C5.33798 218.025 5.32927 218.689 5.96477 218.689C6.23743 218.689 6.8163 218.826 7.2504 218.992C8.33675 219.409 9.58501 215.996 8.5802 215.359C7.35941 214.584 6.53231 214.883 5.99561 216.294ZM3.64949 223.684C3.10524 225.716 3.25437 226.113 4.66305 226.382C5.80987 226.601 6.08633 226.384 6.47346 224.96C7.03715 222.886 6.82927 222.469 5.23053 222.469C4.38554 222.469 3.8687 222.866 3.64949 223.684ZM2.02969 231.244C1.43037 233.482 1.61941 233.889 3.17441 233.71C4.4114 233.568 4.6873 233.247 4.82822 231.784C4.97778 230.236 4.84169 230.029 3.67651 230.029C2.76295 230.029 2.25484 230.404 2.02969 231.244ZM0.948245 238.415C0.299245 240.107 0.609252 241.243 1.8052 241.556C3.22361 241.927 3.91306 241.081 3.71922 239.209C3.55346 237.608 1.48548 237.015 0.948245 238.415ZM0.352684 245.587C-0.472873 246.412 0.22314 247.309 1.6896 247.309C3.68141 247.309 3.90436 245.929 1.97248 245.56C1.23655 245.419 0.507645 245.431 0.352684 245.587Z" fill="white"/>
</svg>
