<svg width="310" height="580" viewBox="0 0 310 580" fill="none" xmlns="http://www.w3.org/2000/svg">
<path fill-rule="evenodd" clip-rule="evenodd" d="M183.063 0.826957C183.063 1.43824 183.306 1.93883 183.603 1.93883C183.9 1.93883 184.143 1.58892 184.143 1.1607C184.143 0.732479 183.9 0.232428 183.603 0.0488279C183.306 -0.134772 183.063 0.215677 183.063 0.826957ZM131.804 14.5926C131.142 15.2968 130.468 16.8693 130.304 18.087C130.051 19.9721 130.198 20.4516 131.293 21.3129C132.54 22.2936 132.577 22.5463 132.517 29.5469C132.47 34.8745 132.204 37.5205 131.5 39.6341L130.545 42.4993L132.037 44.0567C133.671 45.762 133.567 47.2988 131.818 47.2988C131.233 47.2988 130.563 47.6029 130.33 47.9738C129.872 48.705 129.596 55.684 129.44 70.5016C129.342 79.728 129.368 79.9683 130.63 81.4684L131.919 83.0026L130.14 84.8385C128.554 86.4753 128.444 86.7793 129.121 87.6417C129.538 88.1736 130.306 88.9275 130.828 89.3168C131.349 89.7061 132.132 90.7137 132.568 91.5567C133.323 93.0179 133.3 93.1038 132.075 93.4116C131.368 93.5893 130.406 93.8814 129.938 94.0612C128.536 94.5991 128.165 92.5881 127.183 79.1448C126.181 65.4223 125.615 61.8783 124.589 62.9038C124.12 63.373 124.13 63.7856 124.629 64.5848C124.993 65.1674 125.29 66.5914 125.29 67.7492C125.29 69.3929 124.998 70.0463 123.955 70.7294C122.814 71.4773 122.696 71.8062 123.145 72.9872C123.912 75.0046 123.789 77.3633 122.819 79.2409C122.015 80.7945 122.03 80.9576 123.089 82.0835C124.538 83.6268 124.503 84.1101 122.834 85.561C121.498 86.7226 121.469 86.8916 121.827 91.3061L122.195 95.8545L120.098 95.5365C118.945 95.3615 117.831 95.0678 117.623 94.8836C117.415 94.6995 117.09 91.2683 116.9 87.2588C116.355 75.7547 113.699 61.4873 112.602 64.1738C112.39 64.6933 112.63 79.1518 113.135 96.3038C114.526 143.483 114.77 166.327 113.947 172.068C113.288 176.669 113.177 176.931 111.445 177.953L109.632 179.023L109.624 183.495C109.619 186.01 109.275 188.915 108.838 190.129C108.41 191.317 108.049 193.455 108.036 194.881C108.013 197.424 106.817 200.659 105.9 200.659C105.077 200.659 104.804 197.454 104.272 181.593C103.985 173.037 103.605 165.018 103.426 163.773C103.249 162.528 103.337 160.295 103.623 158.81C103.968 157.023 103.954 155.168 103.581 153.311C103.031 150.573 103.371 147.239 104.124 147.988C104.332 148.195 104.757 153.083 105.069 158.85C105.998 176.071 106.703 172.431 106.312 152.438C105.836 128.153 104.254 89.36 103.698 88.3669C102.689 86.5633 102.496 92.2458 103.087 106.349C103.874 125.126 103.878 129.78 103.103 129.005C102.718 128.62 102.247 119.997 101.747 104.192C101.071 82.8238 100.568 76.4588 99.5534 76.4588C99.4011 76.4588 98.8406 76.9978 98.3072 77.6566C97.4773 78.6809 97.2117 78.7495 96.466 78.1301C95.1443 77.0334 95.4008 76.1791 97.574 74.4349C99.6581 72.7625 99.812 71.0588 97.8785 71.0588C96.8629 71.0588 95.5941 70.0993 95.5941 69.3309C95.5941 69.0933 96.425 68.8988 97.4411 68.8988C99.0593 68.8988 99.3326 68.6958 99.6484 67.2567C100.249 64.5216 97.5017 62.7256 96.1708 64.9838C95.3922 66.3047 94.734 65.1869 94.2815 61.7751C93.9689 59.4197 93.7896 59.1297 92.7362 59.2793C91.0549 59.5185 91.0245 61.0872 92.3344 80.0353C92.9478 88.9086 93.694 106.496 93.9926 119.119C94.2912 131.741 94.7561 148.705 95.0255 156.816C95.3624 166.954 95.3381 172.072 94.9477 173.192C93.5974 177.066 93.2491 173.306 92.5791 147.624C91.5257 107.261 90.9192 97.4416 88.2514 77.5388C86.7402 66.2653 86.2554 64.2624 84.5076 62.0727C83.1664 60.3922 83.3651 60.3749 78.232 62.6111L76.258 63.4708L72.4455 59.9408C69.2048 56.94 68.2249 55.5743 65.908 50.8299C63.1258 45.1324 62.5118 44.4557 60.5837 44.9601C59.5433 45.2323 59.4731 45.7501 59.2457 54.7778C59.114 60.0201 58.7436 65.7668 58.4235 67.5488C57.9764 70.0307 58.0337 72.937 58.6681 79.9688C59.5498 89.7412 60.6237 146.372 59.9742 148.819C59.4893 150.646 57.4975 150.945 57.0937 149.253C56.9306 148.569 56.1261 143.693 55.3059 138.418C53.0447 123.872 52.5992 126.873 53.9479 147.569C54.5829 157.315 55.24 167.619 55.408 170.467L55.7135 175.646L52.8417 176.747L49.9697 177.847L49.3667 176.698C49.0351 176.066 48.5956 172.997 48.3904 169.879C47.9676 163.457 46.8867 160.896 43.5122 158.322C41.8157 157.028 41.55 156.963 41.2417 157.766C40.7865 158.953 41.4242 180.402 42.132 187.699C43.5709 202.536 46.2302 263.555 45.6276 267.909L45.1822 271.129L44.7691 267.889C44.5418 266.107 43.9835 256.873 43.5284 247.369C42.4933 225.756 42.3086 222.77 41.0382 207.139C39.8071 191.992 38.1522 169.832 37.0119 153.224C35.7301 134.557 34.8992 129.919 32.8372 129.919C31.7357 129.919 31.7222 130.061 32.0829 138.055C32.2848 142.529 33.4084 158.021 34.579 172.48C38.4984 220.88 38.7807 226.288 40.2477 281.119C41.2012 316.752 41.6196 326.156 43.7567 359.959C47.6777 421.983 48.2927 436.185 49.6679 496.524C50.2024 519.972 50.0918 519.234 53.0744 519.251L54.5592 519.259V514.081V508.904L56.7859 509.28C59.6934 509.772 59.9402 509.321 59.9505 503.496C59.9596 498.318 60.7143 496.766 61.277 500.769C61.7154 503.894 62.6096 506.839 63.1182 506.839C63.3255 506.839 63.9367 503.862 64.4766 500.224C65.7962 491.327 65.8746 491.028 66.6996 491.712C67.0722 492.021 68.0585 493.79 68.8922 495.642C70.3808 498.952 70.4138 499.249 70.8236 513.049C71.3813 531.855 73.3364 563.925 74.0011 565.166C74.2943 565.715 75.0755 566.241 75.7369 566.336C76.3983 566.431 77.2401 567.115 77.6078 567.855C78.1332 568.912 78.6197 569.166 79.8734 569.034C80.7513 568.942 82.1913 569.24 83.0736 569.696C84.6426 570.508 84.6917 570.492 85.3083 569.004C85.6555 568.166 86.9967 566.443 88.2887 565.175L90.6386 562.868L92.0165 565.051C92.774 566.251 93.8642 567.383 94.4392 567.565C95.8878 568.025 102.765 566.863 103.266 566.074C103.492 565.719 103.68 561.837 103.685 557.447C103.691 551.639 103.911 548.943 104.492 547.553C104.931 546.501 105.509 545.776 105.776 545.941C106.043 546.107 106.438 549.054 106.652 552.493C107.133 560.176 107.48 561.6 108.927 561.812C110.727 562.078 111.792 560.522 111.792 557.628C111.792 556.201 111.943 554.279 112.127 553.357L112.463 551.679L113.52 553.025C114.102 553.764 114.772 554.249 115.01 554.102C115.248 553.956 115.617 551.499 115.831 548.643C116.055 545.655 116.422 543.653 116.695 543.927C116.957 544.188 117.507 546.183 117.919 548.359C118.562 551.763 119.32 553.243 120.431 553.269C120.579 553.272 121.473 552.804 122.417 552.229C123.568 551.526 124.19 550.683 124.307 549.666C124.441 548.492 124.796 548.112 125.878 547.986C127.182 547.835 127.339 548.069 128.245 551.496C128.778 553.516 129.412 555.387 129.654 555.653C129.897 555.922 130.609 555.262 131.254 554.168C132.523 552.018 134.469 551.453 134.469 553.235C134.469 555.145 135.074 555.981 136.28 555.736C136.917 555.607 138.324 555.359 139.406 555.186L141.374 554.871L142.025 557.585C142.633 560.123 143.23 560.873 143.846 559.876C143.989 559.643 143.896 553.994 143.639 547.321C143.022 531.294 142.852 514.474 143.304 514.023C143.503 513.824 143.895 513.89 144.175 514.169C145.022 515.017 147.427 535.6 147.436 542.08C147.443 547.736 148.16 552.494 149.56 556.176L150.147 557.72L151.136 556.444C153.021 554.015 153.543 552.464 153.94 548.11C154.262 544.578 154.726 542.996 156.355 539.887C158.566 535.664 158.618 534.571 156.89 528.439C156.172 525.888 156.106 522.725 156.421 506.029C156.624 495.337 156.826 483.673 156.87 480.109C156.915 476.545 157.222 472.657 157.554 471.469C158.047 469.699 158.607 448.294 158.748 425.866C158.76 423.9 158.946 423.103 159.307 423.464C159.634 423.791 159.964 430.951 160.14 441.527C160.301 451.164 160.659 464.395 160.936 470.929C161.213 477.463 161.703 494.108 162.025 507.919C162.347 521.729 162.708 533.521 162.828 534.123C162.948 534.726 164.531 536.266 166.346 537.546C169.378 539.684 169.579 539.948 168.816 540.791C166.453 543.402 165.656 549.422 167.056 554.089C167.592 555.877 167.97 556.28 169.251 556.427L170.799 556.605L170.425 566.687L170.052 576.769L172.582 578.098C174.465 579.088 175.817 579.397 177.871 579.307C181.739 579.139 182.177 578.922 183.542 576.493C184.933 574.016 186.425 573.7 188.61 575.419C190.026 576.532 193.153 576.829 196.473 576.166C197.75 575.91 198.277 575.416 198.728 574.049C199.052 573.068 199.668 571.973 200.099 571.616C200.757 571.069 200.881 571.276 200.881 572.923C200.881 573.999 200.972 574.879 201.083 574.879C201.194 574.879 202.345 574.505 203.642 574.047C205.192 573.5 206.805 572.293 208.36 570.516C209.659 569.031 211.85 567.243 213.23 566.545C214.609 565.845 216.381 564.63 217.167 563.843C218.668 562.342 221.205 561.379 223.657 561.379C224.95 561.379 225.131 561.606 225.28 563.404C225.411 564.981 225.677 565.429 226.483 565.429C227.261 565.429 227.771 564.669 228.538 562.365C229.14 560.561 230.069 558.968 230.799 558.49C232.036 557.68 232.04 557.687 233.019 561.972L234 566.266L235.423 564.902C236.205 564.152 237.461 563.539 238.214 563.539C239.523 563.539 239.611 563.336 240.249 558.814C240.615 556.215 241.285 552.755 241.738 551.125L242.561 548.161L243.588 549.43C244.396 550.427 244.617 551.582 244.624 554.824C244.636 560.973 245.848 561.937 247.865 557.402L248.859 555.169L248.897 558.004C248.943 561.451 250.017 561.812 251.706 558.949C252.319 557.909 253.031 557.059 253.288 557.059C254.158 557.059 256.523 553.025 257.403 550.039C257.885 548.405 259.551 540.143 261.104 531.679C262.915 521.807 264.048 516.773 264.261 517.639C264.445 518.381 264.034 524.699 263.347 531.679C262.226 543.064 262.178 544.611 262.875 546.719C263.374 548.228 263.544 550.125 263.349 552.012C263.059 554.825 263.109 554.977 264.494 555.5C265.291 555.801 266.602 556.677 267.408 557.445C268.676 558.655 268.993 558.744 269.76 558.108C270.247 557.703 271.215 556.087 271.909 554.515C272.856 552.374 273.457 551.659 274.306 551.659C274.931 551.659 276 551.1 276.682 550.417C277.606 549.493 278.139 549.311 278.767 549.708C279.418 550.118 279.951 549.836 281.097 548.475C281.913 547.504 283.837 546.155 285.37 545.476C288.509 544.088 290.259 542.18 291.03 539.303C291.868 536.181 294.178 522.179 294.828 516.289C295.156 513.319 295.786 507.89 296.228 504.224C296.669 500.558 297.258 493.875 297.536 489.374C297.813 484.872 298.282 479.366 298.578 477.139C298.873 474.911 299.123 468.551 299.132 463.005C299.149 452.934 299.151 452.915 300.867 448.695C301.812 446.371 302.753 443.254 302.958 441.769C303.164 440.284 303.515 438.279 303.738 437.314L304.143 435.559H301.704C298.654 435.559 298.575 435.382 298.21 427.679C297.982 422.878 298.111 421.13 298.86 418.874C299.594 416.666 299.668 415.746 299.203 414.604C298.328 412.452 296.87 403.468 297.369 403.302C297.606 403.224 297.721 400.912 297.625 398.164C297.53 395.417 297.69 391.711 297.98 389.929C298.448 387.053 298.392 386.564 297.478 385.574C295.93 383.897 296.159 383.014 298.069 383.294C299.949 383.57 300.138 383.013 298.609 381.704C297.669 380.898 297.529 380.111 297.529 375.619C297.529 372.166 297.287 370.107 296.798 369.394C296.396 368.808 295.928 366.935 295.758 365.232C295.46 362.247 295.511 362.086 297.141 360.81L298.834 359.485L297.88 355.807C296.392 350.067 295.962 343.934 296.846 341.059C297.71 338.249 297.425 335.416 296.135 333.99C295.572 333.368 295.354 332.534 295.554 331.768C295.731 331.094 295.628 326.83 295.326 322.294C294.856 315.226 294.893 313.88 295.586 312.892C296.297 311.875 296.299 311.556 295.602 310.208C294.133 307.367 294.081 304.244 295.411 298.728L296.662 293.535L295.545 291.236C294.499 289.082 294.458 288.459 294.902 281.382C295.162 277.228 295.522 272.788 295.701 271.517C295.893 270.149 295.753 268.544 295.356 267.588C294.784 266.206 294.821 265.823 295.607 264.954C296.448 264.025 296.456 263.798 295.694 262.325C294.27 259.572 294.026 256.492 295.1 254.852C296.097 253.33 296.249 249.748 295.728 240.079C295.592 237.554 295.217 229.049 294.895 221.179C294.572 213.308 293.914 202.373 293.432 196.879C292.806 189.743 292.423 176.013 292.092 148.819C291.615 109.697 291.411 104.052 290.398 101.995C290.045 101.278 289.938 99.4255 290.131 97.3595C290.374 94.7594 290.196 93.0925 289.401 90.5404C288.823 88.6828 288.347 86.0298 288.342 84.6458C288.33 80.3555 287.97 79.6988 285.633 79.6988C284.477 79.6988 283.478 79.404 283.344 79.0238C282.931 77.8418 281.023 80.0574 279.367 83.6424C277.831 86.9694 277.822 87.0455 277.931 96.7088C277.991 102.055 278.188 108.616 278.369 111.289C278.629 115.124 278.53 116.376 277.899 117.228C277.46 117.822 276.936 118.144 276.737 117.944C276.537 117.744 276.034 111.791 275.62 104.715C274.75 89.859 274.177 85.0497 273.091 83.4993C272.344 82.4328 272.242 82.5057 270.378 85.4423C268.904 87.7664 268.354 89.3141 268.073 91.9347C267.847 94.0504 267.304 95.8848 266.664 96.6985C265.667 97.9665 265.663 98.082 266.566 99.4601C267.481 100.857 267.473 100.927 266.281 101.892C265.087 102.859 265.071 102.999 265.687 107.087C266.035 109.398 266.651 112.086 267.056 113.062C267.858 114.993 267.478 116.764 265.999 117.992C264.887 118.915 264.898 120.124 266.031 121.377C266.874 122.308 266.857 122.448 265.757 123.62C265.111 124.307 264.744 125.029 264.94 125.226C265.136 125.422 265.606 125.16 265.984 124.645C266.614 123.788 266.72 123.835 267.239 125.194C267.616 126.181 267.63 127.143 267.279 128.064C266.99 128.826 266.753 130.548 266.753 131.893C266.753 133.751 266.471 134.564 265.576 135.289L264.399 136.242L265.795 138.625C267.023 140.72 267.101 141.132 266.443 142.032C265.792 142.923 265.833 143.281 266.764 144.786C268.099 146.948 268.109 147.862 266.806 149.041C265.798 149.953 265.799 150.024 266.862 153.039C268.148 156.687 267.931 160.03 266.186 163.452C265.065 165.648 265.055 165.815 265.926 167.641C267.184 170.279 267.441 175.095 266.895 185.796C266.586 191.867 266.616 195.668 266.985 197.052C267.475 198.884 267.411 199.236 266.473 199.925C265.884 200.357 265.469 201.124 265.549 201.63C265.629 202.135 265.204 203.512 264.604 204.688C263.312 207.222 263.199 209.212 264.323 209.643C264.809 209.83 265.133 210.644 265.133 211.679C265.133 212.627 265.437 213.715 265.808 214.097C266.352 214.657 266.037 215.179 264.188 216.785C261.929 218.747 261.893 218.834 261.893 222.277C261.893 224.202 261.654 226.61 261.362 227.629C260.947 229.074 261.007 229.678 261.632 230.368C262.073 230.855 262.433 231.931 262.433 232.758C262.433 233.585 262.965 235.207 263.614 236.362L264.794 238.462L263.595 240.083C262.582 241.455 262.452 242.12 262.754 244.398C262.999 246.242 262.896 247.351 262.429 247.913C261.891 248.563 261.878 249.553 262.371 252.642C263.344 258.747 262.386 305.221 261.007 318.784C260.641 322.384 260.189 322.89 259.078 320.944C258.187 319.384 258.221 289.017 259.155 251.959C259.542 236.57 259.685 215.079 259.501 199.849C259.329 185.593 259.25 167.975 259.325 160.699C259.626 131.937 258.716 102.895 257.336 97.1776C256.342 93.0601 254.849 89.2633 254.402 89.7115C254.216 89.8973 254.15 93.768 254.255 98.3126C254.496 108.67 254.262 109.939 252.115 109.939C251.238 109.939 250.409 110.243 250.272 110.614C250.135 110.985 249.787 133.28 249.499 160.159C249.21 187.037 248.816 209.576 248.622 210.244C248.222 211.621 246.513 211.882 246.037 210.639C245.863 210.189 245.984 197.249 246.304 181.884C246.91 152.86 246.586 110.884 245.656 97.7888C245.125 90.3115 243.772 77.5766 243.204 74.7038C242.86 72.9672 241.66 72.7582 240.839 74.2924C240.523 74.8831 239.695 75.5089 238.998 75.6839C237.785 75.9885 237.721 76.2537 237.488 81.9226C237.3 86.4672 237.037 88.0499 236.353 88.7335C235.863 89.2239 235.299 89.4621 235.101 89.2633C234.795 88.9577 234.437 80.6768 234.308 70.9762C234.27 68.0543 233.646 67.6849 229.951 68.3988C228.663 68.6477 226.73 68.8621 225.657 68.8751L223.707 68.8988L223.374 72.8138C223.191 74.9668 222.88 79.2193 222.683 82.2638C222.485 85.3084 222.139 87.7988 221.914 87.7988C221.688 87.7988 221.253 87.0785 220.946 86.1978C220.588 85.1712 219.891 84.4719 219.001 84.2489C217.868 83.9643 217.46 83.3449 216.766 80.855C215.167 75.1137 214.834 74.2988 214.087 74.2988C213.675 74.2988 213.102 73.8593 212.815 73.322C211.969 71.7414 210.603 62.9837 210.601 59.1275C210.6 56.2758 210.389 55.3751 209.54 54.6072C207.901 53.1238 206.965 53.9468 205.748 57.9379C203.67 64.7549 201.236 67.6401 196.482 68.9205C194.142 69.5506 192.638 69.0273 191.689 67.254C191.371 66.66 190.763 60.1654 190.337 52.8214C189.563 39.4688 188.883 32.0584 187.871 25.9688C187.263 22.313 184.826 14.5106 184.163 14.1013C183.924 13.9533 183.453 14.9242 183.117 16.2591C182.008 20.6649 181.806 25.1405 182.513 29.6856C183.015 32.9089 183.057 34.9998 182.665 37.271C182.297 39.4083 182.304 40.8804 182.687 41.8956C183.147 43.1144 183.038 43.7424 182.086 45.3565L180.922 47.3285L182.533 49.0139C183.418 49.9405 184.143 50.8888 184.143 51.1204C184.143 51.77 182.584 53.18 180.904 54.0483C179.648 54.6979 179.324 55.3033 179.01 57.5826C178.713 59.7464 178.361 60.4565 177.36 60.9128C175.675 61.6807 175.366 63.9265 175.552 74.0855C175.632 78.5092 175.5 84.2381 175.257 86.8161C174.897 90.6457 174.978 91.9077 175.701 93.7135C176.495 95.6996 176.508 96.3735 175.824 100.366C175.316 103.33 174.947 111.637 174.716 125.329C174.384 145.034 174.039 159.013 173.62 169.808C173.511 172.59 173.121 175.594 172.753 176.484C172.192 177.838 172.236 178.553 173.025 180.875C173.832 183.253 173.882 184.188 173.37 187.429C173.042 189.508 172.82 191.695 172.876 192.289C173.037 193.965 172.932 198.56 172.527 207.679C172.322 212.282 172.189 216.778 172.232 217.669C172.593 225.198 171.853 235.563 171.014 234.724C170.307 234.017 169.676 211.737 169.609 185.135L169.565 167.722L167.81 166.993L166.055 166.264L165.36 168.573C164.788 170.471 164.374 170.946 163.034 171.24C161.657 171.543 161.43 171.821 161.569 173.034C161.725 174.374 161.915 174.469 164.435 174.469C165.92 174.469 167.439 174.665 167.81 174.906C168.663 175.458 168.678 177.145 167.841 178.484C167.348 179.274 167.345 179.992 167.827 181.564C168.34 183.237 168.311 183.835 167.663 184.823C166.903 185.983 166.779 186.001 164.651 185.25C162.439 184.469 159.846 184.667 159.846 185.617C159.846 186.843 161.707 188.758 163.657 189.539C167.181 190.949 166.111 193.498 161.601 194.439C159.585 194.859 159.538 195.104 160.716 199.076C162.311 204.458 163.127 205.977 165.024 207.096C166.58 208.014 166.865 208.486 166.865 210.136C166.865 212.543 165.762 212.417 165.12 209.937C164.606 207.955 163.32 207.688 161.479 209.18C160.481 209.988 160.353 210.464 160.674 212.173C161.002 213.923 161.425 214.394 163.711 215.552C165.379 216.397 166.568 217.426 166.906 218.316C167.701 220.408 166.878 220.947 163.922 220.271C162.585 219.965 161.363 219.841 161.208 219.997C160.493 220.711 161.07 223.525 162.6 226.796C164.28 230.386 164.357 231.979 162.852 231.979C161.87 231.979 160.925 233.619 160.928 235.318C160.93 236.006 161.648 237.65 162.525 238.972L164.119 241.376L163.062 243.086C161.307 245.928 161.659 247.428 164.768 250.347C166.292 251.779 167.366 253.205 167.165 253.53C166.965 253.854 165.824 254.119 164.629 254.119C161.447 254.119 162.295 255.768 165.859 256.512C166.96 256.742 167.361 257.223 167.626 258.637C168.181 261.6 167.303 263.06 164.547 263.755C162.533 264.262 162.094 264.61 161.834 265.913C161.663 266.767 161.883 268.777 162.322 270.378C162.778 272.039 163.122 275.607 163.124 278.691C163.126 281.662 163.323 284.409 163.561 284.795C163.8 285.181 163.798 286.743 163.557 288.268C163.051 291.472 163.46 292.233 165.958 292.734C169.353 293.416 169.565 293.56 169.565 295.186C169.565 296.535 169.174 296.959 166.845 298.139C163.17 300.002 162.54 301.469 164.086 304.566C165.154 306.703 165.205 307.175 164.611 309.395C164.017 311.616 164.068 312.088 165.139 314.232C166.595 317.148 166.625 318.638 165.288 321.685C163.27 326.283 163.275 327.847 165.337 337.602C165.799 339.79 165.73 341.456 165.003 345.702C163.832 352.545 163.877 356.098 165.194 360.64L166.252 364.291L164.669 369.01C163.798 371.606 162.302 375.284 161.344 377.184C159.779 380.29 159.57 381.273 159.274 386.904C158.881 394.37 158.809 393.964 158.238 381.019C157.685 368.503 156.824 352.744 155.76 335.659C154.737 319.235 153.73 294.341 153.828 287.869C153.868 285.196 153.848 280.457 153.785 277.339C153.637 270.123 153.612 259.839 153.725 252.229C153.965 235.976 153.914 233.077 153.345 230.603C153.006 229.132 152.515 226.106 152.255 223.879C151.995 221.651 151.624 218.9 151.431 217.764C151.133 216.014 151.264 215.571 152.291 214.851C153.41 214.068 153.471 213.748 153.094 210.706C152.708 207.596 152.581 204.451 152.741 202.009C152.779 201.415 152.705 195.826 152.576 189.589C152.446 183.352 152.225 169.424 152.084 158.638L151.828 139.028L150.38 137.686C148.769 136.193 148.772 136.164 150.85 130.189C152.005 126.869 152.081 126.204 151.476 124.732C150.761 122.989 150.767 116.204 151.488 112.527C151.798 110.949 151.627 110.095 150.682 108.493L149.484 106.462L150.943 105.207L152.401 103.952L150.91 101.799L149.417 99.6453L150.866 98.1328L152.315 96.6203L151.145 95.1326C150.115 93.8226 150.047 93.41 150.578 91.6809C151.04 90.1743 151.026 89.6229 150.519 89.313C148.299 87.9586 148.317 88.105 149.821 83.5885C150.615 81.2033 151.616 79.1173 152.046 78.9526C152.958 78.6021 153.084 77.2213 152.251 76.7062C151.933 76.5101 151.541 76.8601 151.378 77.4843C150.975 79.0233 149.138 78.9655 148.822 77.4038C148.605 76.3368 148.232 70.3822 147.69 59.3711C147.6 57.5464 147.242 55.5203 146.893 54.8691C146.489 54.1131 146.393 52.7112 146.63 50.9935C146.833 49.5134 146.735 45.9499 146.413 43.0755C146.091 40.2005 145.556 33.4748 145.224 28.1288C144.455 15.7207 144.146 13.6066 143.069 13.3998C141.452 13.0887 140.17 18.2242 141.527 19.5812C141.915 19.9694 142.192 28.9259 142.371 46.8242C142.517 61.49 142.884 76.1618 143.186 79.4288C143.488 82.6958 143.687 86.2193 143.628 87.2588C143.569 88.2983 143.515 91.2143 143.509 93.7388C143.502 96.2633 143.47 100.516 143.438 103.189C143.306 113.927 143.628 119.282 144.46 120.201C145.482 121.331 145.473 121.891 144.399 124.144C143.601 125.818 143.601 126.102 144.399 127.645C144.877 128.569 145.268 130.17 145.268 131.204C145.268 132.237 145.656 133.47 146.13 133.944C147.098 134.912 146.806 136.257 145.523 136.749C144.326 137.208 142.103 134.952 141.766 132.937C141.395 130.719 139.826 95.4431 139.315 77.8088C139.091 70.0868 138.649 62.1893 138.333 60.2588C138.017 58.3283 137.503 52.208 137.189 46.6578C136.796 39.6913 136.307 35.5603 135.609 33.3182C135.053 31.5314 134.734 29.934 134.9 29.7688C135.065 29.603 135.378 26.9792 135.596 23.9379C135.933 19.221 135.849 18.0821 135.022 16.1835C133.761 13.2923 133.259 13.0434 131.804 14.5926ZM160.092 14.9258C159.204 15.907 159.171 16.2299 159.8 17.7608C160.19 18.7112 160.628 20.1406 160.774 20.9376C161.032 22.3524 162.264 23.352 162.76 22.549C163.119 21.9674 161.912 13.8188 161.467 13.8188C161.261 13.8188 160.642 14.3172 160.092 14.9258ZM160.14 26.7399C159.761 27.3528 161.78 28.0624 162.55 27.5861C162.854 27.3982 162.964 27.0181 162.792 26.7416C162.391 26.0914 160.541 26.0903 160.14 26.7399ZM96.6739 30.0507C96.6739 30.365 96.9169 30.4724 97.2138 30.2888C97.5108 30.1052 97.7538 29.8482 97.7538 29.717C97.7538 29.5857 97.5108 29.4788 97.2138 29.4788C96.9169 29.4788 96.6739 29.7364 96.6739 30.0507ZM161.813 32.0438C161.243 35.4858 161.428 37.7214 162.365 38.7571C163.119 39.5909 163.166 40.0672 162.658 41.7239C162.018 43.8094 162.186 44.5988 163.27 44.5988C164.606 44.5988 165.355 40.2097 164.706 36.1872C163.702 29.9567 162.453 28.1688 161.813 32.0438ZM207.942 34.8529C207.169 35.3308 207.5 37.0388 208.366 37.0388C209.056 37.0388 209.499 35.718 209.051 34.9933C208.83 34.6369 208.383 34.5802 207.942 34.8529ZM151.477 35.4188C151.294 35.7158 151.401 35.9588 151.715 35.9588C152.029 35.9588 152.287 35.7158 152.287 35.4188C152.287 35.1218 152.18 34.8788 152.049 34.8788C151.918 34.8788 151.661 35.1218 151.477 35.4188ZM207.9 41.8411C207.9 43.8094 208.13 44.5713 208.8 44.8289C210.299 45.404 210.698 44.3872 210.024 41.7088C209.154 38.2555 207.9 38.3338 207.9 41.8411ZM97.1945 42.0981C96.5725 42.7202 97.3402 46.7588 98.0804 46.7588C98.4946 46.7588 98.8229 46.3333 98.8094 45.8138C98.777 44.5524 97.5541 41.7385 97.1945 42.0981ZM232.197 47.8388C232.197 48.1358 232.44 48.3788 232.737 48.3788C233.034 48.3788 233.277 48.1358 233.277 47.8388C233.277 47.5418 233.034 47.2988 232.737 47.2988C232.44 47.2988 232.197 47.5418 232.197 47.8388ZM96.9503 48.908C96.7311 49.2628 96.7948 49.7958 97.0918 50.0928C97.7953 50.7964 98.3548 49.8914 97.7857 48.9701C97.4536 48.4334 97.2532 48.4182 96.9503 48.908ZM161.84 50.5086C160.439 51.4061 160.391 51.5465 161.203 52.3592C162.241 53.3965 162.306 53.4052 163.661 52.6799C164.816 52.0616 165.121 49.4345 164.031 49.4982C163.66 49.5198 162.674 49.9745 161.84 50.5086ZM208.44 50.8407C208.44 51.3035 208.683 51.5324 208.98 51.3488C209.277 51.1652 209.52 50.7867 209.52 50.507C209.52 50.2272 209.277 49.9988 208.98 49.9988C208.683 49.9988 208.44 50.3779 208.44 50.8407ZM96.6739 55.0521C96.6739 56.6505 97.5869 57.4017 98.4638 56.5247C98.9006 56.0879 98.9146 55.6483 98.5129 55.0111C97.5869 53.5428 96.6739 53.5628 96.6739 55.0521ZM151.224 56.9859C150.852 57.6825 150.845 58.1453 151.206 58.3677C152.014 58.8672 152.827 58.1744 152.827 56.987C152.827 55.6391 151.946 55.6386 151.224 56.9859ZM163.086 56.7186C163.086 57.1479 163.663 58.1696 164.368 58.9898L165.651 60.4813L166.028 58.763C166.236 57.818 166.251 56.7963 166.063 56.4918C165.533 55.6343 163.086 55.8206 163.086 56.7186ZM232.197 62.7207C232.197 63.1835 232.44 63.4124 232.737 63.2288C233.034 63.0452 233.277 62.6667 233.277 62.387C233.277 62.1072 233.034 61.8788 232.737 61.8788C232.44 61.8788 232.197 62.2579 232.197 62.7207ZM162.519 63.6565C160.256 65.2052 160.263 66.4321 162.555 69.8929C164.554 72.911 164.556 73.2188 162.578 73.2188C159.745 73.2188 159.815 75.4258 162.68 76.4248L164.347 77.0058L163.176 78.2522C161.746 79.775 161.678 81.3944 162.993 82.5851C164.276 83.7456 164.867 83.7121 166.044 82.4112C166.934 81.4273 166.973 80.6146 166.533 72.0216C166 61.6088 165.878 61.3561 162.519 63.6565ZM150.775 68.4668C149.844 69.3983 149.958 71.5988 150.937 71.5988C151.383 71.5988 151.75 71.2954 151.755 70.9238C151.758 70.5529 151.908 69.7018 152.087 69.0338C152.441 67.7125 151.805 67.437 150.775 68.4668ZM160.392 94.0704C160.402 101.724 160.614 102.388 163.724 104.446C166.174 106.067 166.385 106.366 166.003 107.681C165.772 108.477 165.548 110.173 165.506 111.448C165.412 114.274 164.129 115.889 162.834 114.814C162.368 114.427 162.053 113.477 162.132 112.7C162.229 111.742 162.016 111.289 161.466 111.289C160.074 111.289 160.454 118.677 162.048 122.629L163.356 125.869L165.935 126.034L168.515 126.199L168.233 121.984C168.077 119.666 167.832 113.03 167.688 107.239C167.544 101.447 167.421 96.6484 167.415 96.5738C167.41 96.4993 166.903 96.4388 166.29 96.4388C164.176 96.4388 163.086 95.4323 163.086 93.4818C163.086 91.0788 163.72 90.7651 165.261 92.4056C166.951 94.2043 167.405 94.0861 167.405 91.8488C167.405 90.366 167.189 89.9588 166.401 89.9588C165.848 89.9588 164.269 89.8044 162.891 89.6154L160.386 89.272L160.392 94.0704ZM98.8256 99.2738C98.8191 100.605 98.6911 100.833 98.2937 100.219C97.608 99.1577 97.608 97.5188 98.2937 97.5188C98.5907 97.5188 98.8299 98.3089 98.8256 99.2738ZM121.661 101.299C121.893 102.932 122.041 104.998 121.991 105.889C121.941 106.78 121.917 108.238 121.938 109.129C122.007 111.982 122.024 114.993 121.988 117.904C121.955 120.489 121.843 120.739 120.714 120.739C119.615 120.739 119.433 120.398 119.097 117.71C118.889 116.044 118.763 111.974 118.818 108.665C118.872 105.356 118.737 101.596 118.517 100.311C118.118 97.9741 118.118 97.9725 119.679 98.1507C121.13 98.3159 121.271 98.5411 121.661 101.299ZM10.8625 100.354C10.8835 100.725 11.1005 101.515 11.3445 102.109C11.7522 103.1 11.8203 103.111 12.1745 102.244C12.3866 101.724 12.4201 100.934 12.2489 100.489C11.8737 99.5098 10.8095 99.4061 10.8625 100.354ZM236.742 113.204C236.942 119.9 236.949 125.791 236.755 126.295C235.777 128.845 235.438 125.389 235.453 113.012C235.462 105.38 235.668 99.7642 235.923 100.219C236.172 100.664 236.541 106.508 236.742 113.204ZM130.548 102.751C130.046 103.254 129.484 103.513 129.299 103.328C128.767 102.796 129.583 101.839 130.567 101.839C131.392 101.839 131.39 101.91 130.548 102.751ZM3.0706 103.728C2.88109 104.222 2.72563 105.721 2.72563 107.057C2.72563 108.394 2.11231 111.264 1.36288 113.436L0 117.384L0.808844 128.107C1.25375 134.004 1.87413 145.025 2.18675 152.599C2.49991 160.172 3.1031 169.771 3.52749 173.929C4.40542 182.533 4.77683 205.319 4.11488 209.964C3.765 212.416 3.8606 213.455 4.57493 214.959C5.279 216.444 5.3605 217.278 4.94745 218.774C4.59217 220.06 4.66186 226.402 5.15968 238.079C5.56733 247.644 6.16938 267.254 6.49712 281.659C7.20119 312.587 7.61095 321.63 9.73882 353.209C12.7884 398.471 13.5103 411.623 14.0513 431.779C14.3499 442.916 14.8303 459.683 15.1186 469.039C15.407 478.394 15.8033 493.918 15.9999 503.536L16.3563 521.022L18.2466 523.115C19.6018 524.615 20.971 525.45 23.0854 526.064C25.973 526.904 26.0599 526.897 27.3201 525.713C28.028 525.048 28.9982 523.327 29.476 521.888C29.9539 520.449 30.612 519.107 30.9387 518.905C31.2724 518.698 32.5078 519.661 33.7578 521.102C35.8705 523.537 36.0746 523.643 37.8191 523.191C39.3018 522.806 39.7494 522.356 40.1376 520.858C40.5998 519.074 40.6488 519.044 41.4166 520.076C41.8556 520.666 42.3956 521.463 42.6165 521.846C43.1828 522.828 44.8252 522.069 45.3986 520.56C47.4169 515.251 45.6762 431.536 42.6542 388.579C39.6424 345.767 39.4351 341.609 37.8207 291.649C37.2349 273.532 36.2652 250.933 35.6648 241.429C33.1498 201.585 32.2902 189.655 31.3199 181.099C30.7573 176.133 29.8059 165.684 29.2071 157.879C27.7612 139.038 27.718 138.727 26.1236 135.462C25.02 133.204 24.6485 131.362 24.2711 126.282C23.5768 116.939 22.5218 112.56 21.1655 113.398C20.8474 113.595 19.8231 115.189 18.8896 116.941C17.9561 118.693 16.8185 120.27 16.3622 120.445C15.1371 120.915 13.17 119.401 12.7505 117.665C11.4126 112.124 11.3986 112.099 9.73672 112.099C7.85289 112.099 6.80423 110.738 6.03483 107.293C5.74272 105.987 5.0338 104.448 4.45985 103.873C3.51119 102.925 3.38376 102.911 3.0706 103.728ZM132.164 120.367C131.887 121.196 131.082 121.341 130.15 120.73C129.459 120.277 129.452 120.126 130.101 119.709C131.021 119.116 132.43 119.566 132.164 120.367ZM131.588 128.533C131.409 128.998 131.013 129.379 130.706 129.379C130.085 129.379 129.944 127.605 130.519 127.03C131.111 126.437 131.943 127.606 131.588 128.533ZM122.118 130.195C122.807 133.418 122.626 142.083 121.848 143.149C121.168 144.078 121.053 143.925 120.5 141.346C119.623 137.254 119.15 131.334 119.568 129.668C120.054 127.73 121.661 128.062 122.118 130.195ZM131.286 132.239C130.592 132.932 129.89 132.396 130.403 131.566C130.602 131.245 131.011 131.134 131.314 131.321C131.683 131.549 131.673 131.851 131.286 132.239ZM167.171 133.1C166.975 133.417 167.125 134.228 167.503 134.902L168.191 136.129L168.384 134.852C168.601 133.414 167.742 132.175 167.171 133.1ZM104.217 138.694C104.205 142.29 104.049 143.429 103.66 142.762C102.696 141.108 102.974 133.699 103.999 133.699C104.128 133.699 104.225 135.946 104.217 138.694ZM161.466 138.843C161.466 140.133 161.595 140.204 163.356 139.873C165.796 139.415 165.945 140.687 163.644 142.326C162.268 143.305 162.088 143.71 162.37 145.198C162.815 147.547 163.455 148.235 165.156 148.19C165.947 148.169 167.142 148.33 167.81 148.548C169.005 148.938 169.025 148.871 169.017 144.427C169.012 141.942 168.829 139.628 168.61 139.284C168.392 138.94 167.241 138.5 166.054 138.307C164.867 138.114 163.349 137.844 162.681 137.707C161.672 137.5 161.466 137.693 161.466 138.843ZM133.213 139.976C133.038 141.052 132.769 142.059 132.616 142.212C132.075 142.754 130.69 141.114 130.69 139.933C130.69 138.461 131.101 138.019 132.47 138.019C133.388 138.019 133.488 138.283 133.213 139.976ZM144.063 142.398C144.143 143.999 144.459 145.802 144.766 146.406C145.203 147.264 144.996 148.211 143.811 150.771L142.298 154.041L139.329 153.134L136.359 152.228L138.384 151.234C140.538 150.175 140.887 149.067 139.892 146.451C139.525 145.485 139.616 144.344 140.208 142.501C140.666 141.075 141.132 139.61 141.244 139.244C141.383 138.789 141.838 138.722 142.683 139.033C143.732 139.419 143.94 139.926 144.063 142.398ZM159.171 139.996C159.543 140.146 160.15 140.146 160.521 139.996C160.892 139.847 160.588 139.724 159.846 139.724C159.104 139.724 158.8 139.847 159.171 139.996ZM122.71 152.24C122.925 153.966 123.328 156.196 123.604 157.196C124.179 159.28 122.905 162.589 121.527 162.589C119.909 162.589 119.276 160.133 119.612 155.156C119.984 149.628 120.256 148.706 121.442 148.934C122.072 149.056 122.428 149.984 122.71 152.24ZM163.217 155.384C162.248 156.352 162.37 156.666 164.008 157.412C165.269 157.986 165.569 157.945 166.176 157.115C166.563 156.586 166.797 155.9 166.696 155.59C166.422 154.756 163.989 154.611 163.217 155.384ZM142.92 157.052C143.328 157.712 143.818 160.426 144.51 165.864C144.766 167.875 144.627 169.048 143.984 170.29C143.157 171.891 143.171 172.084 144.261 173.932C145.207 175.535 145.305 176.117 144.812 177.201C144.295 178.334 143.844 178.519 141.603 178.519C138.165 178.519 136.917 177.632 137.648 175.709C137.977 174.843 138.68 174.212 139.434 174.105C141.419 173.824 140.924 172.369 138.654 171.809C137.54 171.533 136.629 171.069 136.629 170.776C136.629 170.483 137.364 169.098 138.262 167.698C139.313 166.059 140.178 163.671 140.691 160.989C141.13 158.698 141.488 156.724 141.488 156.601C141.488 156.098 142.534 156.427 142.92 157.052ZM58.8408 161.104C58.8073 162.4 58.7474 162.452 58.3684 161.509C58.1292 160.915 58.0396 160.246 58.1681 160.024C58.6254 159.233 58.8781 159.639 58.8408 161.104ZM163.061 161.825C162.366 163.123 162.892 164.037 163.647 162.843C164.176 162.006 164.339 160.699 163.914 160.699C163.777 160.699 163.392 161.206 163.061 161.825ZM100.993 164.479C100.993 165.37 100.75 166.099 100.453 166.099C100.156 166.099 99.9135 165.37 99.9135 164.479C99.9135 163.588 100.156 162.859 100.453 162.859C100.75 162.859 100.993 163.588 100.993 164.479ZM123.321 166.768C122.99 167.303 122.5 167.276 121.545 166.672C120.901 166.264 120.89 166.037 121.482 165.324C122.129 164.545 122.256 164.553 122.884 165.412C123.264 165.931 123.461 166.542 123.321 166.768ZM123.929 170.472C124.682 171.209 123.554 172.809 122.131 173.021C121.291 173.146 120.823 172.8 120.428 171.761C120.129 170.973 120.033 170.086 120.216 169.79C120.583 169.196 123.097 169.657 123.929 170.472ZM129.914 177.256C130.124 178.937 130.018 182.642 129.679 185.491C129.203 189.5 129.215 191.461 129.733 194.179C130.186 196.556 130.35 202.053 130.24 211.211C130.108 222.174 130.231 225.18 130.891 227.096C131.601 229.157 131.606 229.6 130.927 230.569C129.813 232.16 129.967 234.814 131.337 237.633C132.515 240.058 132.516 240.097 131.531 242.837C130.86 244.704 130.595 246.672 130.714 248.913C130.811 250.737 130.851 255.023 130.803 258.439C130.756 261.854 130.74 266.593 130.769 268.969C130.853 275.993 130.767 280.077 130.454 284.089C129.943 290.62 129.603 301.938 129.469 316.867C129.378 327.005 129.152 331.472 128.708 331.917C128.225 332.4 128.002 331.992 127.766 330.189C127.083 324.974 125.218 290.133 125.018 278.846C124.901 272.226 124.637 265.298 124.432 263.451C124.195 261.311 124.302 259.233 124.726 257.717C125.291 255.698 125.262 255.09 124.531 253.676C123.452 251.591 123.436 249.246 124.482 246.742C125.237 244.933 125.217 244.677 124.176 242.993C122.792 240.753 122.673 238.24 123.889 236.897C124.743 235.952 124.749 235.64 123.971 232.635C122.859 228.345 122.911 226.799 124.21 225.499C125.989 223.72 125.66 220.643 123.401 217.939C122.361 216.695 121.511 215.55 121.511 215.397C121.511 215.242 122.052 214.153 122.714 212.976L123.916 210.835L122.714 208.745C121.141 206.012 121.145 203.676 122.726 202.567C123.926 201.725 123.929 201.693 122.96 200.001C121.99 198.306 121.993 198.277 123.216 197.355C124.393 196.466 124.408 196.372 123.522 195.393C122.393 194.145 122.348 193.432 123.347 192.603C124.504 191.643 123.838 185.506 122.473 184.539C120.968 183.474 120.343 181.365 120.742 178.701C121.053 176.627 121.257 176.356 122.517 176.336C123.3 176.324 124.791 175.848 125.83 175.279C128.981 173.554 129.482 173.797 129.914 177.256ZM123.407 177.968C123.188 178.323 123.252 178.856 123.548 179.153C124.252 179.856 124.811 178.951 124.242 178.03C123.91 177.493 123.71 177.478 123.407 177.968ZM51.2083 183.827C51.3395 187.026 51.2218 187.699 50.5334 187.699C49.8552 187.699 49.6998 186.935 49.6998 183.604C49.6998 180.569 49.8747 179.566 50.3747 179.732C50.8099 179.876 51.1057 181.33 51.2083 183.827ZM143.312 184.21C143.847 185.605 143.016 193.159 142.352 192.933C142.026 192.821 141.744 192.145 141.725 191.429C141.708 190.714 141.495 189.199 141.253 188.062C140.609 185.037 142.367 181.748 143.312 184.21ZM143.64 198.923C143.631 200.385 142.827 202.206 142.404 201.723C142.281 201.583 142.028 200.308 141.843 198.889C141.522 196.44 141.559 196.339 142.576 196.883C143.246 197.241 143.645 198.007 143.64 198.923ZM107.225 211.242C107.425 213.38 107.405 216.429 107.18 218.019L106.772 220.909L106.057 217.816C105.665 216.115 104.701 213.454 103.914 211.903L102.486 209.083L104.239 207.516C106.413 205.573 106.731 205.97 107.225 211.242ZM143 207.247C143.981 208.227 143.822 214.955 142.771 216.988C141.926 218.623 141.866 218.647 141.108 217.636C139.499 215.491 137.651 211.331 137.812 210.218C137.904 209.585 138.804 208.511 139.813 207.832C141.931 206.409 142.127 206.373 143 207.247ZM107.87 236.29C108.029 238.607 107.965 241.197 107.728 242.046L107.298 243.589L106.909 241.969C106.695 241.078 106.499 238.04 106.473 235.219C106.415 228.939 107.419 229.709 107.87 236.29ZM144.081 237.115C144.17 240.082 144.098 243.301 143.92 244.269C143.644 245.777 143.454 245.953 142.603 245.498C141.385 244.845 140.843 242.105 140.949 237.133C141.038 232.951 141.651 231.288 143.009 231.547C143.775 231.694 143.943 232.569 144.081 237.115ZM166.325 232.519C166.325 232.816 166.082 233.059 165.785 233.059C165.488 233.059 165.245 232.816 165.245 232.519C165.245 232.222 165.488 231.979 165.785 231.979C166.082 231.979 166.325 232.222 166.325 232.519ZM171.923 250.474C171.357 254.739 171.34 257.758 171.87 259.654C172.224 260.921 172.125 261.139 171.195 261.139C170.16 261.139 170.105 260.8 170.105 254.479C170.105 250.816 170.267 247.657 170.465 247.459C170.663 247.261 171.173 247.099 171.598 247.099C172.234 247.099 172.291 247.697 171.923 250.474ZM145.251 265.999C145.614 273.869 146.015 283.711 146.141 287.869C146.267 292.027 146.642 296.682 146.973 298.213C147.429 300.319 147.411 302.051 146.902 305.329C146.356 308.838 146.361 310.18 146.929 312.397C147.55 314.821 147.521 315.361 146.675 317.136C145.81 318.95 145.757 320.307 146.105 331.583C146.45 342.771 146.39 344.343 145.51 347.134C144.468 350.438 144.243 350.578 141.527 349.631C140.135 349.146 139.842 348.794 140.065 347.876C140.219 347.245 139.995 346.257 139.567 345.681C139.117 345.075 138.789 343.415 138.789 341.752C138.789 338.916 138.826 338.85 141.218 337.405C143.964 335.746 144.126 335.182 142.494 332.975L141.341 331.414L142.828 330.134L144.317 328.854L142.227 328.165L140.138 327.476L140.067 323.872C140.028 321.89 139.82 318.791 139.604 316.986L139.212 313.702L141.326 312.027C143.204 310.54 143.415 310.138 143.216 308.431C143.017 306.732 142.755 306.445 140.953 305.96C139.832 305.658 138.601 305.033 138.218 304.572C137.632 303.865 137.749 303.521 138.965 302.394C139.759 301.658 140.408 300.934 140.408 300.786C140.408 300.637 139.923 299.563 139.329 298.399C137.839 295.479 137.935 292.532 139.599 290.08C141.255 287.639 141.268 287.233 139.734 285.931C138.551 284.927 138.546 284.878 139.54 284.109C140.102 283.674 140.831 283.197 141.16 283.049C141.513 282.891 141.26 282.413 140.543 281.883C139.507 281.118 139.329 280.488 139.329 277.58C139.329 274.41 139.441 274.092 140.948 273.019C142.687 271.781 142.936 270.636 141.941 268.453C141.434 267.341 141.503 266.52 142.297 264.182C143.544 260.513 143.195 259.519 140.658 259.519C138.951 259.519 138.735 259.371 138.886 258.304C139.011 257.426 139.48 257.04 140.575 256.915C142.483 256.696 142.9 255.668 141.777 253.954C140.938 252.672 140.962 252.579 142.411 251.522C143.474 250.747 144.017 250.609 144.254 251.056C144.44 251.404 144.888 258.128 145.251 265.999ZM108.44 263.299C108.448 273.062 107.689 272.168 107.328 261.99C107.139 256.667 107.155 252.05 107.364 251.73C107.901 250.906 108.434 256.637 108.44 263.299ZM45.7718 281.784C45.6514 282.755 45.5504 282.091 45.5477 280.309C45.5445 278.527 45.6428 277.733 45.7664 278.544C45.8895 279.356 45.8917 280.814 45.7718 281.784ZM46.0282 296.887C45.5244 297.391 45.3803 297.247 45.3803 296.239C45.3803 295.231 45.5244 295.087 46.0282 295.591C46.532 296.095 46.532 296.383 46.0282 296.887ZM46.9921 305.014C46.9856 306.694 46.8435 307.092 46.4602 306.499C45.7712 305.433 45.7712 302.719 46.4602 302.719C46.7571 302.719 46.9964 303.751 46.9921 305.014ZM48.0125 332.689C48.0416 335.396 47.9445 335.751 47.4213 334.849C47.0487 334.206 46.7415 330.711 46.6616 326.209L46.5277 318.649L47.2523 324.049C47.6513 327.019 47.993 330.907 48.0125 332.689ZM140.543 334.936C140.173 335.086 139.565 335.086 139.194 334.936C138.823 334.787 139.126 334.664 139.869 334.664C140.611 334.664 140.915 334.787 140.543 334.936ZM48.9525 351.558C49.1166 351.985 49.1603 352.775 49.0496 353.313C48.9017 354.029 48.682 353.822 48.2225 352.534C47.6123 350.824 48.3121 349.888 48.9525 351.558ZM144.893 365.529C144.578 368.145 143.63 369.679 142.33 369.679C141.539 369.679 140.963 366.903 140.954 363.038C140.949 360.625 141.069 360.396 142.703 359.705L144.458 358.964L144.832 360.946C145.037 362.037 145.065 364.099 144.893 365.529ZM99.7424 366C99.5702 366.431 99.4422 366.303 99.4163 365.674C99.3931 365.104 99.5204 364.786 99.6997 364.965C99.879 365.144 99.8985 365.61 99.7424 366ZM144.188 383.449C144.188 383.894 143.945 384.259 143.648 384.259C143.351 384.259 143.108 383.894 143.108 383.449C143.108 383.003 143.351 382.639 143.648 382.639C143.945 382.639 144.188 383.003 144.188 383.449ZM100.51 394.679C100.075 395.113 99.9178 394.843 99.9297 393.682C99.9443 392.285 100.018 392.212 100.526 393.086C100.941 393.801 100.937 394.252 100.51 394.679ZM304.256 396.715C304.06 397.031 304.03 397.42 304.188 397.579C304.575 397.966 305.628 397.284 305.628 396.647C305.628 395.957 304.696 396.003 304.256 396.715ZM306.452 400.975C305.937 401.809 306.69 403.795 307.429 403.549C308.244 403.277 308.248 400.882 307.432 400.611C307.088 400.496 306.647 400.66 306.452 400.975ZM159.124 408.694C158.974 409.065 158.851 408.761 158.851 408.019C158.851 407.276 158.974 406.973 159.124 407.344C159.274 407.715 159.274 408.323 159.124 408.694ZM101.533 416.389C101.533 417.131 101.29 417.739 100.993 417.739C100.696 417.739 100.453 417.131 100.453 416.389C100.453 415.646 100.696 415.039 100.993 415.039C101.29 415.039 101.533 415.646 101.533 416.389ZM302.388 416.4C302.388 416.851 302.996 418.715 303.738 420.543C304.481 422.37 305.085 424.249 305.081 424.717C305.078 425.185 304.232 426.115 303.203 426.782C302.172 427.449 301.177 428.605 300.99 429.35C300.568 431.032 302.001 433.399 303.441 433.399C304.546 433.399 306.708 431.028 306.708 429.816C306.708 429.41 307.206 428.581 307.815 427.972C308.974 426.812 309.465 423.114 308.68 421.454C308.419 420.904 308.591 420.253 309.141 419.703C310.272 418.571 309.79 417.86 307.046 416.615C304.308 415.371 302.388 415.282 302.388 416.4ZM101.542 425.974C101.512 427.533 101.724 433.423 102.013 439.061C102.502 448.607 102.473 450.179 101.822 449.527C100.816 448.521 100.064 430.99 100.797 425.644C101.254 422.31 101.608 422.468 101.542 425.974ZM102.285 454.773C102.823 456.175 102.658 471.108 102.101 471.452C101.188 472.016 100.579 465.028 100.868 457.294C100.989 454.052 101.595 452.974 102.285 454.773ZM60.4984 487.399C60.4984 487.696 60.2555 487.939 59.9585 487.939C59.6615 487.939 59.4186 487.696 59.4186 487.399C59.4186 487.102 59.6615 486.859 59.9585 486.859C60.2555 486.859 60.4984 487.102 60.4984 487.399ZM103.522 492.36C103.35 492.791 103.222 492.663 103.196 492.034C103.173 491.464 103.3 491.146 103.479 491.325C103.658 491.504 103.678 491.97 103.522 492.36ZM61.0384 493.847C61.0384 494.424 60.7954 495.045 60.4984 495.229C60.1923 495.418 59.9585 494.964 59.9585 494.181C59.9585 493.421 60.2015 492.799 60.4984 492.799C60.7954 492.799 61.0384 493.27 61.0384 493.847ZM104.43 506.569C104.577 510.57 104.529 512.08 104.316 510.079C104.111 508.148 103.644 506.038 103.278 505.389C102.571 504.135 102.363 499.709 102.982 499.09C103.849 498.223 104.185 499.959 104.43 506.569ZM144.188 507.109C144.188 508.429 143.944 508.999 143.378 508.999C142.547 508.999 142.314 507.589 142.896 506.073C143.47 504.577 144.188 505.153 144.188 507.109ZM104.607 527.214C104.47 527.739 104.349 527.44 104.338 526.549C104.327 525.658 104.439 525.228 104.587 525.594C104.735 525.959 104.744 526.688 104.607 527.214ZM249.832 549.634C249.683 550.005 249.56 549.701 249.56 548.959C249.56 548.216 249.683 547.913 249.832 548.284C249.982 548.655 249.982 549.263 249.832 549.634ZM206.066 566.633C205.518 567.182 205.065 566.355 205.515 565.626C205.855 565.076 205.983 565.076 206.165 565.624C206.291 566 206.246 566.453 206.066 566.633ZM201.253 568.804C201.117 569.324 201.006 568.898 201.006 567.859C201.006 566.819 201.117 566.394 201.253 566.914C201.389 567.434 201.389 568.284 201.253 568.804Z" fill="white"/>
</svg>
