<svg width="420" height="165" viewBox="0 0 420 165" fill="none" xmlns="http://www.w3.org/2000/svg">
<path fill-rule="evenodd" clip-rule="evenodd" d="M75.8487 0.9321C75.1808 1.10706 74.9038 1.7216 74.9038 3.02948V4.88006H77.6035H80.3031V2.72006C80.3031 0.630259 80.2459 0.562201 78.5483 0.622681C77.5829 0.657241 76.3681 0.79656 75.8487 0.9321ZM85.7024 2.45006V4.34006H88.4021H91.1018V2.45006V0.560059H88.4021H85.7024V2.45006ZM96.5011 2.74979V4.93945L99.0658 4.77479C101.606 4.61171 101.632 4.59062 101.798 2.58506L101.966 0.560059H99.2331H96.5011V2.74979ZM66.3999 1.53208C64.1856 1.69624 64.1052 1.76644 64.1052 3.529C64.1052 5.73706 64.2909 5.85801 67.2098 5.54913C69.4024 5.31747 69.5045 5.22619 69.5045 3.50521C69.5045 1.38355 69.39 1.31068 66.3999 1.53208ZM107.203 2.94359C107.076 4.02683 107.087 5.02694 107.226 5.1668C107.366 5.30612 108.514 5.42006 109.776 5.42006C111.902 5.42006 112.101 5.29585 112.438 3.76117C112.891 1.69837 112.763 1.57524 109.822 1.24422L107.433 0.974749L107.203 2.94359ZM117.828 3.80223C117.368 5.89527 118.029 6.47953 120.866 6.49195C122.633 6.49951 122.856 6.33426 123.164 4.79364C123.352 3.85512 123.424 3.0057 123.324 2.90634C123.224 2.80644 122.033 2.57267 120.678 2.38691C118.241 2.05319 118.209 2.06937 117.828 3.80223ZM54.1942 3.10344C53.3907 3.31026 53.2579 3.69206 53.5246 5.0264C53.7077 5.94224 53.9652 6.7992 54.097 6.93096C54.2287 7.06218 55.4603 7.00172 56.8339 6.79544C58.7539 6.50762 59.2587 6.23274 59.0185 5.60634C58.8468 5.15814 58.7058 4.32546 58.7058 3.75576C58.7058 2.93442 58.3425 2.733 56.951 2.78268C55.9856 2.81724 54.7454 2.96142 54.1942 3.10344ZM128.655 4.19207C127.874 6.22679 128.345 7.44236 130.044 7.78256C133.219 8.4176 133.623 8.2529 133.859 6.23006C133.981 5.19056 133.946 4.32929 133.783 4.31633C133.62 4.30337 132.467 4.09543 131.22 3.85405C129.45 3.51169 128.888 3.58565 128.655 4.19207ZM44.0132 4.72509C42.6882 4.92651 42.5791 5.11225 42.8696 6.66907C43.3021 8.98729 43.5024 9.10125 46.1524 8.54127C47.8553 8.18163 48.4471 7.79765 48.4471 7.05245C48.4471 4.46585 47.8327 4.14351 44.0132 4.72509ZM139.156 6.40823C139.156 7.00439 139.016 7.85438 138.847 8.29718C138.53 9.12284 138.988 9.3545 142.211 10.0014C143.788 10.3184 143.943 10.2163 144.29 8.63844C144.748 6.55404 144.381 6.17445 141.45 5.69817C139.39 5.36337 139.156 5.43515 139.156 6.40823ZM33.9667 7.11402C32.2961 7.59516 32.1995 7.74746 32.545 9.36044C33.0175 11.5685 32.9019 11.4891 35.0638 11.0836C37.8504 10.5609 38.2445 10.1564 37.8574 8.2194C37.4876 6.3699 37.0146 6.23544 33.9667 7.11402ZM149.763 8.76427C149.089 11.2785 149.338 11.7008 151.832 12.2716C153.994 12.7662 154.28 12.7187 154.532 11.8223C154.687 11.2709 154.943 10.3626 155.1 9.80321C155.332 8.98187 155.012 8.71621 153.442 8.42137C152.373 8.22103 151.182 7.93592 150.797 7.78796C150.39 7.63136 149.957 8.04067 149.763 8.76427ZM23.6961 9.88745C22.0579 10.4113 21.9218 10.6133 22.2172 12.088C22.64 14.2032 22.7085 14.2496 24.7997 13.8467C27.6791 13.2927 28.0301 12.8888 27.3433 10.9194C26.6997 9.0726 26.4567 9.00401 23.6961 9.88745ZM160.206 10.9448C160.202 11.3217 160.053 12.1722 159.875 12.8354C159.626 13.7669 159.842 14.1497 160.828 14.5185C164.287 15.814 164.385 15.8016 165.014 13.9969C165.779 11.8002 165.814 11.9475 164.398 11.4259C161.668 10.4204 160.213 10.253 160.206 10.9448ZM13.8914 13.2182C12.2959 13.8057 12.0195 14.1492 12.1151 15.4236C12.2857 17.6916 12.9325 17.9988 15.4308 16.9993C16.6629 16.5063 17.671 16.044 17.671 15.9722C17.671 15.3226 16.4054 12.4493 16.1332 12.4811C15.9394 12.5038 14.9308 12.8354 13.8914 13.2182ZM170.472 14.869C169.699 16.9037 169.784 17.2714 171.147 17.7812C174.539 19.0507 174.645 19.0367 175.272 17.2369C176.038 15.0407 176.073 15.1892 174.656 14.6589C171.242 13.3813 171.034 13.3916 170.472 14.869ZM374.026 17.8698V20.0594L376.591 19.8948C379.131 19.7317 379.157 19.7106 379.323 17.7051L379.491 15.6801H376.758H374.026V17.8698ZM384.825 17.8401V20.0001H387.525H390.224V17.8401V15.6801H387.525H384.825V17.8401ZM3.75852 17.3503L1.45517 18.3433L2.17868 20.1167C2.57661 21.0919 3.0755 21.8523 3.28769 21.8058C3.49989 21.7594 4.62565 21.3398 5.78921 20.8743C7.83231 20.0568 7.88576 19.9709 7.33557 18.393C7.02241 17.4939 6.60774 16.6677 6.41444 16.5576C6.22061 16.4474 5.02574 16.8043 3.75852 17.3503ZM363.228 18.0782C363.228 20.37 363.659 20.6567 366.434 20.2128C368.495 19.8829 368.627 19.7527 368.627 18.0409V16.2201H365.927H363.228V18.0782ZM395.624 18.3358C395.624 20.431 395.624 20.4315 398.053 20.6248C400.427 20.8133 400.491 20.7766 400.818 19.034C401.002 18.0523 401.063 17.1737 400.953 17.0808C400.843 16.9879 399.599 16.7612 398.188 16.5765L395.624 16.2406V18.3358ZM355.399 17.2012C352.666 17.4178 352.23 17.8643 352.693 19.9725C353.062 21.6524 353.095 21.6676 355.582 21.3069C356.966 21.106 358.133 20.9121 358.177 20.8759C358.219 20.8397 358.098 19.9596 357.907 18.9201C357.57 17.0943 357.485 17.036 355.399 17.2012ZM180.319 19.0194C179.962 19.9649 179.726 20.776 179.795 20.8214C179.864 20.8673 180.964 21.3107 182.239 21.8075L184.558 22.7103L185.313 20.9505C186.066 19.1944 186.062 19.1879 184.074 18.2591C181.352 16.9879 181.063 17.0468 180.319 19.0194ZM406.158 19.4347C405.95 20.3824 405.883 21.2604 406.009 21.3862C406.135 21.5126 407.336 21.7658 408.68 21.95C411.098 22.2815 411.125 22.2675 411.476 20.5163C411.67 19.5432 411.718 18.6366 411.582 18.5005C411.446 18.3644 410.255 18.1317 408.936 17.9832C406.599 17.7196 406.526 17.7574 406.158 19.4347ZM343.883 19.0178C342.136 19.4088 341.624 19.7457 341.858 20.3543C342.03 20.802 342.17 21.6621 342.17 22.2653C342.17 23.2681 342.392 23.3297 344.735 22.9809C346.145 22.7708 347.39 22.5116 347.499 22.4047C347.841 22.0731 347.003 18.3768 346.6 18.4379C346.391 18.4697 345.168 18.7305 343.883 19.0178ZM416.954 21.0671C416.535 22.9749 416.926 23.7801 418.272 23.7801C418.971 23.7801 419.335 23.2692 419.521 22.0251C419.941 19.2171 417.556 18.3266 416.954 21.0671ZM333.608 21.2102C331.334 21.6897 331.265 21.7642 331.588 23.3788C332.035 25.6096 332.08 25.6339 334.735 25.0599C336.881 24.596 337.029 24.4497 336.869 22.9555C336.638 20.7928 336.341 20.6335 333.608 21.2102ZM-6.48184 22.2492C-8.18857 23.3049 -8.20962 23.3637 -7.41268 24.9044C-6.96508 25.7711 -6.4732 26.4801 -6.3204 26.4801C-6.16814 26.4801 -5.07801 25.9876 -3.89826 25.386L-1.75365 24.2914L-2.58407 22.686C-3.54353 20.8295 -4.08778 20.7685 -6.48184 22.2492ZM190.3 22.9442L189.467 24.6921L191.84 25.845L194.213 26.9979L195.077 25.3272C196.046 23.4517 195.858 23.1369 193.086 21.998L191.134 21.1956L190.3 22.9442ZM322.926 24.1181C320.7 24.9076 320.692 24.9195 321.258 26.7641C321.76 28.3998 321.991 28.5774 323.225 28.2794C326.795 27.4175 327.029 27.2026 326.482 25.2937C326.202 24.3168 325.972 23.455 325.972 23.3788C325.972 23.1261 325.187 23.3167 322.926 24.1181ZM-15.3945 27.1821C-17.6876 28.531 -17.7999 28.9306 -16.4004 30.7509L-15.4004 32.0518L-13.4432 30.8422C-11.2543 29.4889 -11.0491 28.7335 -12.4303 27.107L-13.3752 25.994L-15.3945 27.1821ZM199.92 27.5185L199.104 29.0963L201.53 30.4529L203.957 31.8093L204.762 30.2514C205.205 29.3944 205.567 28.565 205.567 28.4078C205.567 28.1227 201.54 25.9401 201.014 25.9401C200.861 25.9401 200.368 26.6501 199.92 27.5185ZM312.648 27.3645C310.424 28.1529 310.401 28.1881 310.974 29.8869C311.74 32.1614 311.573 32.0799 313.923 31.3287C316.718 30.435 316.9 30.1861 316.208 28.201C315.53 26.2554 315.68 26.2905 312.648 27.3645ZM302.755 31.1667C300.287 32.2354 300.346 32.1322 301.128 34.0228C301.911 35.9139 301.978 35.9301 304.579 34.8431C306.721 33.9483 306.836 33.6707 305.908 31.6354C305.193 30.0646 305.272 30.0764 302.755 31.1667ZM209.635 32.3844C208.562 34.4602 208.506 34.296 210.728 35.6066C213.171 37.0484 213.221 37.0419 214.297 35.1498C215.164 33.6254 215.154 33.5379 214.027 32.8073C210.773 30.6969 210.52 30.6726 209.635 32.3844ZM-24.602 33.2587L-26.6305 34.6373L-25.691 36.2287C-25.1738 37.104 -24.6165 37.8201 -24.4529 37.8201C-24.2888 37.8201 -23.2413 37.1996 -22.1258 36.4414L-20.0973 35.0628L-21.0368 33.4714C-21.5541 32.5961 -22.1113 31.8801 -22.2749 31.8801C-22.439 31.8801 -23.4865 32.5005 -24.602 33.2587ZM292.632 35.5224C290.741 36.4636 290.44 37.556 291.625 39.1765C292.356 40.1766 292.424 40.1772 294.594 39.1981C297.033 38.0982 297.102 37.9578 296.189 35.9554C295.469 34.3732 295.044 34.3219 292.632 35.5224ZM218.827 37.9405C217.686 39.568 217.711 39.642 219.947 41.3479L221.907 42.8437L222.904 41.5466C224.305 39.7246 224.179 39.1452 222.107 37.8644C219.857 36.4739 219.854 36.4738 218.827 37.9405ZM-33.6199 39.9536L-35.5075 41.5185L-34.2009 42.909C-33.4822 43.6742 -32.7544 44.2903 -32.5838 44.2779C-32.4126 44.266 -31.4564 43.5575 -30.4581 42.7038L-28.6439 41.1519L-29.6482 39.7727C-30.923 38.0236 -31.3139 38.0415 -33.6199 39.9536ZM283.048 40.3429C280.86 41.5039 280.928 41.3608 281.691 43.2028C282.487 45.1252 282.987 45.2024 285.342 43.766C287.343 42.5461 287.305 42.6466 286.47 40.8154C285.747 39.2273 285.273 39.162 283.048 40.3429ZM227.57 44.0138C226.303 45.7559 226.361 46.0621 228.223 47.4385C230.225 48.9192 230.482 48.9122 231.959 47.3386L233.163 46.0578L231.031 44.3686C229.858 43.4398 228.813 42.6876 228.707 42.6968C228.601 42.7065 228.089 43.2989 227.57 44.0138ZM273.599 45.4891C272.56 46.1334 271.629 46.7155 271.53 46.784C271.432 46.8521 271.606 47.3537 271.917 47.8986C273.324 50.3631 273.325 50.3637 275.54 49.0936C276.7 48.4289 277.727 47.83 277.823 47.7625C278.123 47.553 276.293 44.2995 275.88 44.3092C275.665 44.3141 274.638 44.8449 273.599 45.4891ZM-40.6547 46.2057C-41.2233 46.891 -41.1266 47.2587 -40.0878 48.3652C-38.9102 49.6185 -38.7757 49.6444 -37.8406 48.7977C-36.8768 47.9256 -36.8822 47.8581 -38.0279 46.6388C-39.4193 45.1576 -39.7411 45.1047 -40.6547 46.2057ZM235.898 50.9496C235.252 51.637 234.724 52.3374 234.724 52.5059C234.724 52.6744 235.592 53.4741 236.653 54.2836L238.582 55.7546L239.9 54.5158L241.218 53.2776L239.485 51.4885C238.531 50.5052 237.598 49.7001 237.412 49.7001C237.225 49.7001 236.543 50.2627 235.898 50.9496ZM264.269 51.0738C262.191 52.4859 262.178 52.6042 263.807 55.0428C264.269 55.7346 265.663 55.1978 268.621 53.1896C268.85 53.034 266.892 49.7076 266.57 49.7033C266.416 49.7017 265.381 50.3183 264.269 51.0738ZM255.116 57.0889L253.102 58.4724L254.208 60.0265C254.817 60.8808 255.423 61.5801 255.555 61.5801C256.099 61.5801 259.548 59.1182 259.554 58.7261C259.564 58.1095 257.878 55.6341 257.474 55.6725C257.285 55.6903 256.224 56.3275 255.116 57.0889ZM243.746 58.2218L242.283 59.7489L244.166 61.5741C245.812 63.1698 245.954 63.5057 245.291 64.245C244.634 64.9778 244.693 65.2898 245.739 66.5956L246.945 68.1005L248.528 66.9077C249.399 66.2521 250.324 65.5323 250.583 65.3093C250.842 65.0857 250.512 64.1418 249.849 63.2109C248.671 61.5547 248.62 61.5396 247.488 62.4905C246.597 63.24 246.635 63.1202 247.657 61.9646L248.981 60.4671L247.095 58.5809L245.209 56.6947L243.746 58.2218ZM250.916 66.176L249.642 67.5324L251.443 69.3906L253.243 71.2482L254.704 70.0591L256.165 68.8701L254.578 66.8451C253.705 65.7316 252.81 64.8201 252.59 64.8201C252.37 64.8201 251.617 65.4302 250.916 66.176ZM237.896 70.1228C236.208 71.631 236.201 71.6602 237.139 73.0928C237.661 73.8888 238.251 74.5401 238.451 74.5401C238.651 74.5401 239.645 73.8462 240.661 72.9978C242.492 71.4696 242.5 71.4421 241.573 70.0278C240.397 68.2323 240 68.2425 237.896 70.1228ZM258.061 74.3008C256.566 75.3479 256.564 75.8015 258.042 77.8017C259.402 79.642 259.907 79.7327 261.588 78.4394L262.804 77.5025L261.366 75.4813C259.728 73.1777 259.685 73.1631 258.061 74.3008ZM229.899 76.9328L228.045 78.8477L229.294 80.1782L230.544 81.5082L232.364 80.1204C234.518 78.4772 234.552 78.2677 232.969 76.429L231.754 75.018L229.899 76.9328ZM264.285 82.9749C263.468 83.4036 262.8 84.0219 262.8 84.3486C262.8 84.975 264.897 88.5801 265.261 88.5801C265.378 88.5801 266.186 88.147 267.057 87.6178L268.639 86.655L267.424 84.6424C265.829 81.998 265.986 82.0817 264.285 82.9749ZM223.032 84.4134C220.532 87.2695 220.524 87.311 222.235 88.5304L223.83 89.666L225.508 87.5471L227.185 85.4286L225.632 84.3221L224.08 83.2162L223.032 84.4134ZM216.106 93.9638C215.359 95.1486 214.746 96.2389 214.746 96.3852C214.746 96.5321 215.508 97.0462 216.438 97.5273C218.284 98.482 218.273 98.489 219.935 95.4148C220.392 94.5703 220.687 93.8289 220.591 93.7662C220.494 93.7041 219.752 93.2381 218.941 92.731L217.466 91.8087L216.106 93.9638ZM269.143 92.67L267.656 93.4762L268.749 95.6184C269.35 96.7962 270.095 97.7601 270.406 97.7601C270.887 97.7601 272.961 96.8415 273.502 96.389C273.797 96.1422 271.44 91.819 271.023 91.8417C270.806 91.8536 269.96 92.2261 269.143 92.67ZM211.238 103.344C210.823 104.337 210.411 105.442 210.32 105.801C210.143 106.51 213.498 108.197 213.866 107.584C213.989 107.378 214.468 106.299 214.931 105.185L215.771 103.16L214.206 102.35C212.115 101.268 212.103 101.273 211.238 103.344ZM273.599 102.223C272.857 102.558 272.189 102.865 272.116 102.905C272.042 102.945 272.36 104.085 272.821 105.439L273.659 107.9L275.552 107.319C277.561 106.702 277.619 106.364 276.308 102.914C275.729 101.392 275.544 101.345 273.599 102.223ZM208.049 112.256C207.893 112.507 207.611 113.688 207.42 114.879C207.108 116.835 207.197 117.077 208.345 117.385C210.46 117.951 210.835 117.803 211.204 116.255C211.399 115.438 211.676 114.372 211.82 113.884C212.004 113.261 211.571 112.82 210.364 112.399C208.307 111.682 208.4 111.688 208.049 112.256ZM276.953 112.449C275.254 112.901 275.193 113.008 275.534 114.926C275.989 117.491 276.363 117.864 278.257 117.647C279.709 117.481 279.797 117.333 279.635 115.329C279.388 112.267 279.04 111.893 276.953 112.449ZM205.895 123.454C205.715 123.924 205.567 125.139 205.567 126.154C205.567 127.948 205.628 128 207.727 128H209.887V125.628C209.887 123.963 209.632 123.158 209.033 122.928C207.538 122.354 206.233 122.573 205.895 123.454ZM276.943 125.671C277.108 128.258 277.118 128.271 279.164 128.44L281.22 128.609L281.054 126.01C280.889 123.422 280.878 123.41 278.832 123.241L276.776 123.071L276.943 125.671ZM206.115 135.155C206.128 138.473 206.613 139.367 208.194 138.995C210.288 138.503 210.504 138.125 210.108 135.648C209.769 133.526 209.647 133.4 207.928 133.4C206.233 133.4 206.108 133.52 206.115 135.155ZM276.652 133.823C276.526 134.036 276.258 135.209 276.056 136.431C275.697 138.602 275.727 138.659 277.43 138.999C278.388 139.191 279.275 139.243 279.403 139.116C279.706 138.812 280.702 134.374 280.502 134.217C280.003 133.823 276.842 133.5 276.652 133.823ZM210.013 143.979L208.25 144.75L209.405 147.04C210.859 149.924 210.698 149.788 211.865 149.122C214.374 147.69 214.367 147.711 213.164 145.353C212.537 144.125 211.969 143.14 211.901 143.164C211.832 143.188 210.983 143.555 210.013 143.979ZM272.574 145.579C271.926 146.678 271.466 147.626 271.552 147.687C273.102 148.783 274.446 149.6 274.699 149.6C275.359 149.6 277.483 145.169 277.035 144.731C276.778 144.481 275.935 144.12 275.16 143.929C273.949 143.63 273.587 143.861 272.574 145.579ZM215.799 153.14L214.551 154.467L216.099 156.084C217.949 158.014 218.725 158.1 219.845 156.5C220.978 154.882 220.952 154.791 218.865 153.2L217.046 151.812L215.799 153.14ZM266.183 153.199L264.436 154.586L265.545 156.143C266.154 156.999 266.819 157.69 267.021 157.678C267.224 157.666 268.226 156.941 269.248 156.068L271.106 154.479L269.829 153.12C269.126 152.372 268.411 151.771 268.241 151.785C268.069 151.799 267.144 152.435 266.183 153.199ZM257.35 158.145C255.515 159.001 255.435 159.146 255.881 160.805C256.14 161.77 256.583 162.56 256.865 162.56C257.581 162.56 261.72 160.876 261.72 160.585C261.72 159.974 260.028 157.164 259.682 157.2C259.467 157.222 258.417 157.647 257.35 158.145ZM224.555 159.068C223.628 161.104 223.716 161.279 226.165 162.259C228.599 163.233 229.004 163.057 229.537 160.796C229.827 159.567 229.672 159.222 228.662 158.844C225.425 157.632 225.204 157.644 224.555 159.068ZM247.682 160.4C246.346 160.549 245.313 160.853 245.387 161.075C245.462 161.298 245.522 162.237 245.522 163.162V164.843L248.087 164.461C249.497 164.251 250.74 163.994 250.847 163.889C250.955 163.784 250.833 162.896 250.577 161.914C250.122 160.17 250.057 160.136 247.682 160.4ZM234.62 162.307C234.497 163.355 234.511 164.327 234.65 164.467C234.79 164.606 236.078 164.72 237.514 164.72C240.118 164.72 240.123 164.716 240.123 162.898C240.123 161.288 239.926 161.036 238.436 160.738C235.257 160.101 234.858 160.266 234.62 162.307Z" fill="white"/>
</svg>
